<?xml version="1.0" encoding="UTF-8" standalone="no"?>
<!-- Created with Inkscape (http://www.inkscape.org/) -->

<svg
   xmlns:dc="http://purl.org/dc/elements/1.1/"
   xmlns:cc="http://creativecommons.org/ns#"
   xmlns:rdf="http://www.w3.org/1999/02/22-rdf-syntax-ns#"
   xmlns:svg="http://www.w3.org/2000/svg"
   xmlns="http://www.w3.org/2000/svg"
   xmlns:xlink="http://www.w3.org/1999/xlink"
   xmlns:sodipodi="http://sodipodi.sourceforge.net/DTD/sodipodi-0.dtd"
   xmlns:inkscape="http://www.inkscape.org/namespaces/inkscape"
   width="3840"
   height="2160"
   viewBox="0 0 1016 571.50002"
   version="1.1"
   id="svg8"
   inkscape:version="0.92.4 (5da689c313, 2019-01-14)"
   sodipodi:docname="02_data-projekte.svg"
   inkscape:export-filename="C:\Users\kanne\Desktop\open-boat-projects\boot_2023_Screens\02_data-projekte.png"
   inkscape:export-xdpi="96"
   inkscape:export-ydpi="96">
  <defs
     id="defs2">
    <rect
       height="111.402"
       width="157.19701"
       y="-0.59799999"
       x="0"
       id="SVGID_1_" />
    <rect
       height="111.402"
       width="157.19701"
       y="-0.59799999"
       x="0"
       id="SVGID_3_" />
    <clipPath
       id="SVGID_2_-9">
      <use
         id="use37-0"
         style="overflow:visible"
         xlink:href="#SVGID_1_"
         x="0"
         y="0"
         width="100%"
         height="100%" />
    </clipPath>
    <clipPath
       id="SVGID_4_-0">
      <use
         id="use43-2"
         style="overflow:visible"
         xlink:href="#SVGID_3_"
         x="0"
         y="0"
         width="100%"
         height="100%" />
    </clipPath>
    <clipPath
       id="clipPath170">
      <use
         id="use168"
         style="overflow:visible"
         xlink:href="#SVGID_3_"
         x="0"
         y="0"
         width="100%"
         height="100%" />
    </clipPath>
    <clipPath
       id="clipPath174">
      <use
         id="use172"
         style="overflow:visible"
         xlink:href="#SVGID_3_"
         x="0"
         y="0"
         width="100%"
         height="100%" />
    </clipPath>
    <rect
       height="111.402"
       width="157.19701"
       y="-0.59799999"
       x="0"
       id="rect108-3" />
    <rect
       height="111.402"
       width="157.19701"
       y="-0.59799999"
       x="0"
       id="rect113-4" />
    <clipPath
       id="SVGID_2_-5">
      <use
         height="100%"
         width="100%"
         y="0"
         x="0"
         xlink:href="#SVGID_1_"
         style="overflow:visible"
         id="use37-5" />
    </clipPath>
    <clipPath
       id="SVGID_4_-7">
      <use
         height="100%"
         width="100%"
         y="0"
         x="0"
         xlink:href="#SVGID_3_"
         style="overflow:visible"
         id="use43-0" />
    </clipPath>
    <clipPath
       id="clipPath388">
      <use
         height="100%"
         width="100%"
         y="0"
         x="0"
         xlink:href="#SVGID_3_"
         style="overflow:visible"
         id="use386" />
    </clipPath>
    <clipPath
       id="clipPath392">
      <use
         height="100%"
         width="100%"
         y="0"
         x="0"
         xlink:href="#SVGID_3_"
         style="overflow:visible"
         id="use390" />
    </clipPath>
    <rect
       id="rect108-9"
       x="0"
       y="-0.59799999"
       width="157.19701"
       height="111.402" />
    <rect
       id="rect113-5"
       x="0"
       y="-0.59799999"
       width="157.19701"
       height="111.402" />
    <clipPath
       id="SVGID_2_-6">
      <use
         height="100%"
         width="100%"
         y="0"
         x="0"
         xlink:href="#SVGID_1_"
         style="overflow:visible"
         id="use37-6" />
    </clipPath>
    <clipPath
       id="SVGID_4_-9">
      <use
         height="100%"
         width="100%"
         y="0"
         x="0"
         xlink:href="#SVGID_3_"
         style="overflow:visible"
         id="use43-7" />
    </clipPath>
    <clipPath
       id="clipPath651">
      <use
         height="100%"
         width="100%"
         y="0"
         x="0"
         xlink:href="#SVGID_3_"
         style="overflow:visible"
         id="use649" />
    </clipPath>
    <clipPath
       id="clipPath655">
      <use
         height="100%"
         width="100%"
         y="0"
         x="0"
         xlink:href="#SVGID_3_"
         style="overflow:visible"
         id="use653" />
    </clipPath>
    <rect
       id="rect108-7"
       x="0"
       y="-0.59799999"
       width="157.19701"
       height="111.402" />
    <rect
       id="rect113-6"
       x="0"
       y="-0.59799999"
       width="157.19701"
       height="111.402" />
    <clipPath
       id="clipPath4692"
       clipPathUnits="userSpaceOnUse">
      <path
         inkscape:connector-curvature="0"
         sodipodi:nodetypes="csssc"
         style="display:block;fill:#000000;fill-opacity:0.65086209;stroke:#000000;stroke-width:1;stroke-linecap:butt;stroke-linejoin:miter;stroke-miterlimit:4;stroke-dasharray:none;stroke-opacity:1"
         id="path4694"
         d="m 299.40047,57.08479 c 34.57587,34.575863 34.59796,90.69256 0.0221,125.26842 -34.57586,34.57587 -90.71466,34.57587 -125.29052,0 -34.57587,-34.57585 -34.57586,-90.714657 0,-125.29052 34.57585,-34.57587 90.69256,-34.553767 125.26842,0.0221 z" />
    </clipPath>
    <linearGradient
       gradientTransform="scale(1.00007,0.999929)"
       gradientUnits="userSpaceOnUse"
       xlink:href="#linearGradient1754"
       id="linearGradient1777"
       y2="242.17987"
       x2="345.53265"
       y1="42.808048"
       x1="150.49463" />
    <linearGradient
       id="linearGradient1754">
      <stop
         id="stop1755"
         offset="0.0000000"
         style="stop-color:#747474;stop-opacity:1.0000000;" />
      <stop
         id="stop1757"
         offset="0.50000000"
         style="stop-color:#bebebe;stop-opacity:1.0000000;" />
      <stop
         id="stop1759"
         offset="0.62500000"
         style="stop-color:#d5d5d5;stop-opacity:1.0000000;" />
      <stop
         id="stop1758"
         offset="0.75000000"
         style="stop-color:#818181;stop-opacity:1.0000000;" />
      <stop
         id="stop1756"
         offset="1.0000000"
         style="stop-color:#c3c3c3;stop-opacity:1.0000000;" />
    </linearGradient>
    <linearGradient
       gradientTransform="matrix(0.697599,0,0,1.47183,0,-11.8264)"
       gradientUnits="userSpaceOnUse"
       xlink:href="#linearGradient1767"
       id="linearGradient1778"
       y2="252.27031"
       x2="411.72696"
       y1="252.27031"
       x1="299.37338" />
    <linearGradient
       id="linearGradient1767">
      <stop
         id="stop1768"
         offset="0.0000000"
         style="stop-color:#3f3318;stop-opacity:1.0000000;" />
      <stop
         id="stop1769"
         offset="1.0000000"
         style="stop-color:#815f0e;stop-opacity:1.0000000;" />
    </linearGradient>
    <linearGradient
       gradientTransform="scale(0.689104,1.45116)"
       gradientUnits="userSpaceOnUse"
       xlink:href="#linearGradient1767"
       id="linearGradient1779"
       y2="240.80186"
       x2="302.99097"
       y1="240.14357"
       x1="414.13153" />
    <radialGradient
       gradientUnits="userSpaceOnUse"
       xlink:href="#linearGradient3810"
       id="radialGradient2415"
       fy="70.866119"
       fx="212.59842"
       r="35.433071"
       cy="70.866119"
       cx="212.59842" />
    <linearGradient
       id="linearGradient3810"
       inkscape:collect="always">
      <stop
         id="stop3812"
         offset="0"
         style="stop-color:#ffffff;stop-opacity:1;" />
      <stop
         id="stop3814"
         offset="1"
         style="stop-color:#ffffff;stop-opacity:0;" />
    </linearGradient>
    <linearGradient
       gradientTransform="scale(1.19593,0.836169)"
       gradientUnits="userSpaceOnUse"
       xlink:href="#linearGradient2419-7"
       id="linearGradient2422"
       y2="184.92068"
       x2="264.56921"
       y1="184.92068"
       x1="156.33752" />
    <linearGradient
       id="linearGradient2419-7">
      <stop
         offset="0"
         style="stop-color: rgb(0, 0, 0); stop-opacity: 0.505155;"
         id="stop2420-9" />
      <stop
         offset="1"
         style="stop-color: rgb(0, 0, 0); stop-opacity: 0;"
         id="stop2421-0" />
    </linearGradient>
    <linearGradient
       gradientUnits="userSpaceOnUse"
       y2="114.19597"
       x2="226.24182"
       y1="111.85479"
       x1="333.46722"
       id="linearGradient3348"
       xlink:href="#linearGradient3342"
       inkscape:collect="always" />
    <linearGradient
       id="linearGradient3342">
      <stop
         id="stop3344"
         offset="0"
         style="stop-color:#37abc8;stop-opacity:1" />
      <stop
         id="stop3346"
         offset="1"
         style="stop-color:#41c8e2;stop-opacity:1" />
    </linearGradient>
    <linearGradient
       y2="242.17987"
       x2="345.53265"
       y1="42.808048"
       x1="150.49463"
       gradientTransform="matrix(0.7071572,0.7071572,-0.7070568,0.7070568,165.34723,-157.46953)"
       gradientUnits="userSpaceOnUse"
       id="linearGradient3647"
       xlink:href="#linearGradient1754"
       inkscape:collect="always" />
    <radialGradient
       r="32.437725"
       fy="105.52122"
       fx="152.81053"
       cy="105.52122"
       cx="152.81053"
       gradientTransform="matrix(0.3302862,0.4185388,-0.8888451,0.7014235,240.50843,-75.850178)"
       gradientUnits="userSpaceOnUse"
       id="radialGradient3649"
       xlink:href="#linearGradient3810"
       inkscape:collect="always" />
    <linearGradient
       y2="252.27031"
       x2="411.72696"
       y1="252.27031"
       x1="299.37338"
       gradientTransform="matrix(0.5845184,0,0,1.4122215,44.857079,-224.7014)"
       gradientUnits="userSpaceOnUse"
       id="linearGradient3632"
       xlink:href="#linearGradient2657"
       inkscape:collect="always" />
    <linearGradient
       id="linearGradient2657">
      <stop
         id="stop2659"
         offset="0.0000000"
         style="stop-color:#241f1c;stop-opacity:1" />
      <stop
         id="stop2661"
         offset="1.0000000"
         style="stop-color:#b3b3b3;stop-opacity:1" />
    </linearGradient>
    <linearGradient
       y2="240.80186"
       x2="302.99097"
       y1="240.14357"
       x1="414.13153"
       gradientTransform="matrix(0.5774005,0,0,1.3923885,44.857079,-213.35399)"
       gradientUnits="userSpaceOnUse"
       id="linearGradient3634"
       xlink:href="#linearGradient2657"
       inkscape:collect="always" />
  </defs>
  <sodipodi:namedview
     id="base"
     pagecolor="#ffffff"
     bordercolor="#666666"
     borderopacity="1.0"
     inkscape:pageopacity="0.0"
     inkscape:pageshadow="2"
     inkscape:zoom="0.25"
     inkscape:cx="362.46916"
     inkscape:cy="1350.5336"
     inkscape:document-units="px"
     inkscape:current-layer="layer1"
     showgrid="true"
     units="px"
     showguides="true"
     inkscape:guide-bbox="true"
     inkscape:window-width="2276"
     inkscape:window-height="920"
     inkscape:window-x="3686"
     inkscape:window-y="123"
     inkscape:window-maximized="0"
     inkscape:pagecheckerboard="true">
    <sodipodi:guide
       position="0,0"
       orientation="0,1980"
       id="guide144"
       inkscape:locked="false" />
    <sodipodi:guide
       position="0,285.75"
       orientation="1080,0"
       id="guide150"
       inkscape:locked="false" />
    <sodipodi:guide
       position="0,0"
       orientation="0,1920"
       id="guide814"
       inkscape:locked="false" />
    <sodipodi:guide
       position="0,285.75"
       orientation="1080,0"
       id="guide820"
       inkscape:locked="false" />
    <inkscape:grid
       type="xygrid"
       id="grid4733"
       spacingx="2.6458334"
       spacingy="2.6458334"
       empspacing="5"
       originy="142.875"
       snapvisiblegridlinesonly="false"
       visible="false"
       enabled="false" />
    <sodipodi:guide
       position="0,571.50001"
       orientation="0,1"
       id="guide4650"
       inkscape:locked="false"
       inkscape:label=""
       inkscape:color="rgb(0,0,255)" />
    <sodipodi:guide
       position="1016,0"
       orientation="1,0"
       id="guide4652"
       inkscape:locked="false"
       inkscape:label=""
       inkscape:color="rgb(0,0,255)" />
    <sodipodi:guide
       position="10.102788,494.47536"
       orientation="1,0"
       id="guide4696"
       inkscape:locked="false" />
    <sodipodi:guide
       position="210.28766,474.45688"
       orientation="0,1"
       id="guide4698"
       inkscape:locked="false" />
  </sodipodi:namedview>
  <metadata
     id="metadata5">
    <rdf:RDF>
      <cc:Work
         rdf:about="">
        <dc:format>image/svg+xml</dc:format>
        <dc:type
           rdf:resource="http://purl.org/dc/dcmitype/StillImage" />
        <dc:title></dc:title>
      </cc:Work>
    </rdf:RDF>
  </metadata>
  <g
     inkscape:label="Ebene 1"
     inkscape:groupmode="layer"
     id="layer1"
     transform="translate(0,274.50002)">
    <flowRoot
       xml:space="preserve"
       id="flowRoot4003"
       style="font-style:normal;font-variant:normal;font-weight:normal;font-stretch:normal;font-size:44.4611514px;line-height:1.25;font-family:'Noto Sans';-inkscape-font-specification:'Noto Sans, Normal';font-variant-ligatures:normal;font-variant-caps:normal;font-variant-numeric:normal;font-feature-settings:normal;text-align:justify;letter-spacing:0px;word-spacing:0px;writing-mode:lr;text-anchor:start;fill:#000000;fill-opacity:1;stroke:none;"
       transform="matrix(0.65364553,0,0,0.65364553,329.91507,-503.97423)"><flowRegion
         id="flowRegion4005"
         style="font-style:normal;font-variant:normal;font-weight:normal;font-stretch:normal;font-size:44.4611514px;font-family:'Noto Sans';-inkscape-font-specification:'Noto Sans, Normal';font-variant-ligatures:normal;font-variant-caps:normal;font-variant-numeric:normal;font-feature-settings:normal;text-align:justify;writing-mode:lr;text-anchor:start;"><rect
           id="rect4007"
           width="966.80444"
           height="681.67603"
           x="34"
           y="572"
           style="font-style:normal;font-variant:normal;font-weight:normal;font-stretch:normal;font-size:44.4611514px;font-family:'Noto Sans';-inkscape-font-specification:'Noto Sans, Normal';font-variant-ligatures:normal;font-variant-caps:normal;font-variant-numeric:normal;font-feature-settings:normal;text-align:justify;writing-mode:lr;text-anchor:start;" /></flowRegion><flowPara
         id="flowPara5127">• openStreetMap</flowPara><flowPara
         id="flowPara5129" /><flowPara
         id="flowPara5131" /><flowPara
         id="flowPara5133">•  openSeaMap</flowPara><flowPara
         id="flowPara5135" /><flowPara
         id="flowPara5137" /><flowPara
         id="flowPara5139">• openNauticalChart</flowPara><flowPara
         id="flowPara5141" /><flowPara
         id="flowPara5143" /><flowPara
         id="flowPara5145">• openDEM</flowPara></flowRoot>    <text
       xml:space="preserve"
       style="font-style:normal;font-variant:normal;font-weight:500;font-stretch:normal;font-size:10.58333397px;line-height:1.25;font-family:Rubik;-inkscape-font-specification:'Rubik Medium';letter-spacing:0px;word-spacing:0px;fill:#000000;fill-opacity:1;stroke:none;stroke-width:0.26458335"
       x="396.875"
       y="87.979149"
       id="text173"><tspan
         sodipodi:role="line"
         id="tspan171"
         x="396.875"
         y="97.652626"
         style="stroke-width:0.26458335" /></text>
    <text
       xml:space="preserve"
       style="font-style:normal;font-variant:normal;font-weight:bold;font-stretch:normal;font-size:30.77139473px;line-height:1.25;font-family:'Noto Sans';-inkscape-font-specification:'Noto Sans, Bold';font-variant-ligatures:normal;font-variant-caps:normal;font-variant-numeric:normal;font-feature-settings:normal;text-align:start;letter-spacing:0px;word-spacing:0px;writing-mode:lr-tb;text-anchor:start;fill:#000000;fill-opacity:1;stroke:none;stroke-width:0.6410678"
       x="350.92444"
       y="-151.23534"
       id="text208"><tspan
         sodipodi:role="line"
         id="tspan4773"
         x="350.92444"
         y="-151.23534">openGeoData</tspan></text>
    <g
       id="g172"
       transform="matrix(1.1893828,0,0,1.1893828,-2.5430862,-190.63266)">
      <g
         style="display:inline"
         transform="translate(0,-97)"
         id="layer1-5"
         inkscape:label="Ebene 1">
        <rect
           y="87.995232"
           x="2.1381562"
           height="207.93568"
           width="293.99649"
           id="rect827"
           style="fill:#ffffff;fill-opacity:0;stroke:none;stroke-width:0.26458332" />
      </g>
      <g
         transform="translate(0,-11)"
         style="display:inline"
         inkscape:label="Ebene 2"
         id="layer2">
        <path
           inkscape:connector-curvature="0"
           id="path3736"
           d="M 11.759859,162.35694 109.04596,24.445862 V 162.89148 Z"
           style="fill:#102c99;fill-opacity:1;stroke:none;stroke-width:0.26458332px;stroke-linecap:butt;stroke-linejoin:miter;stroke-opacity:1" />
        <path
           inkscape:connector-curvature="0"
           id="path3738"
           d="M 131.4966,23.911323 V 161.8224 H 264.59683 V 23.376784 Z"
           style="fill:#102c99;fill-opacity:1;stroke:none;stroke-width:0.26458332px;stroke-linecap:butt;stroke-linejoin:miter;stroke-opacity:1" />
        <rect
           inkscape:export-ydpi="300"
           inkscape:export-xdpi="300"
           y="1.9952309"
           x="2.1381562"
           height="207.93568"
           width="293.99649"
           id="rect825"
           style="fill:#000000;fill-opacity:0;stroke:none;stroke-width:0.26458332" />
      </g>
      <g
         transform="translate(0,-11)"
         style="display:inline"
         inkscape:label="Ebene 3"
         id="layer3">
        <text
           id="text3746"
           y="85.30162"
           x="147.27094"
           style="font-style:normal;font-weight:normal;font-size:64.79262543px;line-height:1.25;font-family:sans-serif;letter-spacing:0px;word-spacing:0px;fill:#ffffff;fill-opacity:1;stroke:none;stroke-width:1.61981559"
           xml:space="preserve"><tspan
             style="font-style:normal;font-variant:normal;font-weight:900;font-stretch:normal;font-family:Arial;-inkscape-font-specification:'Arial Heavy';fill:#ffffff;fill-opacity:1;stroke-width:1.61981559"
             y="85.30162"
             x="147.27094"
             id="tspan3744"
             sodipodi:role="line">OP</tspan></text>
        <text
           id="text3746-1"
           y="147.60292"
           x="147.33258"
           style="font-style:normal;font-weight:normal;font-size:64.79262543px;line-height:1.25;font-family:sans-serif;letter-spacing:0px;word-spacing:0px;fill:#ffffff;fill-opacity:1;stroke:none;stroke-width:1.61981559"
           xml:space="preserve"><tspan
             style="font-style:normal;font-variant:normal;font-weight:900;font-stretch:normal;font-family:Arial;-inkscape-font-specification:'Arial Heavy';fill:#ffffff;fill-opacity:1;stroke-width:1.61981559"
             y="147.60292"
             x="147.33258"
             id="tspan3744-1"
             sodipodi:role="line">EN</tspan></text>
        <text
           transform="scale(0.98962213,1.0104867)"
           id="text3742"
           y="196.46695"
           x="10.306168"
           style="font-style:normal;font-weight:normal;font-size:10.47350216px;line-height:1.25;font-family:sans-serif;letter-spacing:0px;word-spacing:0px;fill:#102c99;fill-opacity:1;stroke:none;stroke-width:0.26183751"
           xml:space="preserve"><tspan
             style="font-style:normal;font-variant:normal;font-weight:900;font-stretch:normal;font-size:34.91167068px;font-family:Arial;-inkscape-font-specification:'Arial Heavy';fill:#102c99;fill-opacity:1;stroke-width:0.26183751"
             y="196.46695"
             x="10.306168"
             id="tspan3740"
             sodipodi:role="line">Boat Projects</tspan></text>
      </g>
    </g>
    <rect
       style="opacity:1;fill:#333333;fill-opacity:0;stroke:none;stroke-width:9.80595493;stroke-linecap:round;stroke-linejoin:round;stroke-miterlimit:4;stroke-dasharray:0, 107.86549794;stroke-dashoffset:0;stroke-opacity:0"
       id="rect4610"
       width="2006.6"
       height="58.763828"
       x="0"
       y="-274.50003" />
    <g
       id="g4667">
      <rect
         y="-274.50003"
         x="0"
         height="73.157265"
         width="1016"
         id="rect4612"
         style="opacity:1;fill:#333333;fill-opacity:1;stroke:none;stroke-width:8.42222595;stroke-linecap:round;stroke-linejoin:round;stroke-miterlimit:4;stroke-dasharray:0, 92.64447772;stroke-dashoffset:0;stroke-opacity:0" />
      <text
         transform="scale(0.98627766,1.0139133)"
         id="text4616"
         y="-242.04898"
         x="10.012522"
         style="font-style:normal;font-variant:normal;font-weight:bold;font-stretch:normal;font-size:26.72055817px;line-height:1.25;font-family:'Noto Sans';-inkscape-font-specification:'Noto Sans, Bold';font-variant-ligatures:normal;font-variant-caps:normal;font-variant-numeric:normal;font-feature-settings:normal;text-align:start;letter-spacing:0px;word-spacing:0px;writing-mode:lr-tb;text-anchor:start;fill:#ffffff;fill-opacity:1;stroke:none;stroke-width:0.5566783"
         xml:space="preserve"><tspan
           style="fill:#ffffff;fill-opacity:1;stroke-width:0.5566783"
           y="-242.04898"
           x="10.012522"
           id="tspan4614"
           sodipodi:role="line">open-boat-projects.org</tspan></text>
      <text
         transform="scale(0.98627766,1.0139133)"
         id="text4616-0"
         y="-208.70285"
         x="13.789603"
         style="font-style:normal;font-variant:normal;font-weight:bold;font-stretch:normal;font-size:14.27538872px;line-height:1.25;font-family:'Noto Sans';-inkscape-font-specification:'Noto Sans, Bold';font-variant-ligatures:normal;font-variant-caps:normal;font-variant-numeric:normal;font-feature-settings:normal;text-align:start;letter-spacing:0px;word-spacing:0px;writing-mode:lr-tb;text-anchor:start;fill:#ffffff;fill-opacity:1;stroke:none;stroke-width:0.29740393"
         xml:space="preserve"><tspan
           style="fill:#ffffff;fill-opacity:1;stroke-width:0.29740393"
           y="-208.70285"
           x="13.789603"
           id="tspan4614-8"
           sodipodi:role="line">open Source | open Hardware | open Data</tspan></text>
      <path
         inkscape:connector-curvature="0"
         id="path4636"
         d="M 9.9765032,-236.18201 H 309.82586"
         style="fill:none;stroke:#03a9f4;stroke-width:2.29875278;stroke-linecap:butt;stroke-linejoin:miter;stroke-miterlimit:4;stroke-dasharray:none;stroke-opacity:1" />
    </g>
    <text
       xml:space="preserve"
       style="font-style:normal;font-variant:normal;font-weight:bold;font-stretch:normal;font-size:30.77139473px;line-height:1.25;font-family:'Noto Sans';-inkscape-font-specification:'Noto Sans, Bold';font-variant-ligatures:normal;font-variant-caps:normal;font-variant-numeric:normal;font-feature-settings:normal;text-align:start;letter-spacing:0px;word-spacing:0px;writing-mode:lr-tb;text-anchor:start;fill:#000000;fill-opacity:1;stroke:none;stroke-width:0.6410678"
       x="355.52838"
       y="-35.419075"
       id="text208-7"><tspan
         sodipodi:role="line"
         id="tspan4771"
         x="355.52838"
         y="-35.419075">freie Seekarte</tspan></text>
    <text
       xml:space="preserve"
       style="font-style:normal;font-variant:normal;font-weight:bold;font-stretch:normal;font-size:30.77139473px;line-height:1.25;font-family:'Noto Sans';-inkscape-font-specification:'Noto Sans, Bold';font-variant-ligatures:normal;font-variant-caps:normal;font-variant-numeric:normal;font-feature-settings:normal;text-align:start;letter-spacing:0px;word-spacing:0px;writing-mode:lr-tb;text-anchor:start;fill:#000000;fill-opacity:1;stroke:none;stroke-width:0.6410678"
       x="350.45151"
       y="183.29221"
       id="text208-7-9"><tspan
         style="stroke-width:0.6410678"
         sodipodi:role="line"
         id="tspan4771-5"
         x="350.45151"
         y="183.29221">Tiefendaten weltweit</tspan></text>
    <text
       xml:space="preserve"
       style="font-style:normal;font-variant:normal;font-weight:bold;font-stretch:normal;font-size:30.77139473px;line-height:1.25;font-family:'Noto Sans';-inkscape-font-specification:'Noto Sans, Bold';font-variant-ligatures:normal;font-variant-caps:normal;font-variant-numeric:normal;font-feature-settings:normal;text-align:start;letter-spacing:0px;word-spacing:0px;writing-mode:lr-tb;text-anchor:start;fill:#000000;fill-opacity:1;stroke:none;stroke-width:0.6410678"
       x="353.62653"
       y="75.342216"
       id="text208-7-3"><tspan
         style="stroke-width:0.6410678"
         sodipodi:role="line"
         id="tspan4771-2"
         x="353.62653"
         y="75.342216">Seekarten Renderer</tspan></text>
    <g
       id="g4437"
       transform="matrix(0.20148819,0,0,0.20148819,589.51683,-171.67213)">
      <g
         style="display:block"
         id="layer4-4">
        <g
           id="g3754">
          <path
             style="fill:#ffffff;fill-opacity:1;fill-rule:evenodd;stroke:#000000;stroke-width:6.25;stroke-linecap:butt;stroke-linejoin:miter;stroke-miterlimit:4;stroke-opacity:1"
             id="path2522"
             d="M 17.61491,18.292406 88.582677,35.433051 159.44882,17.716515 230.31496,35.433051 301.1811,17.716515 318.89764,88.582657 301.1811,159.4488 318.89764,230.31494 301.1811,301.18108 230.31496,318.89762 159.44882,301.18108 88.582677,318.89762 17.716535,301.18108 35.433071,230.31494 17.716535,159.4488 35.433071,88.582657 Z"
             inkscape:connector-curvature="0" />
          <path
             style="fill:#e3ffc5;fill-opacity:1;fill-rule:evenodd;stroke:#000000;stroke-width:0.25000001pt;stroke-linecap:butt;stroke-linejoin:miter;stroke-opacity:1"
             id="path1278"
             d="M 19.6474,302.16346 35.433071,230.31494 17.716535,159.4488 35.433071,88.582657 17.716535,17.716515 88.582677,35.433051 159.44882,17.716515 230.31496,35.433051 301.1811,17.716515 318.89764,88.582657 301.1811,159.4488 l 17.71654,70.86614 -17.71654,70.86614 -70.86614,17.71654 -70.86614,-17.71654 -70.866143,17.71654 z"
             inkscape:connector-curvature="0" />
          <path
             style="fill:#91d55d;fill-opacity:1;fill-rule:evenodd;stroke:none"
             id="path2682"
             d="m 194.88189,141.73226 c 0,-2.30348 0,-4.60697 0,-6.91045 0,-9.9373 -1.75844,-10.80608 -11.28033,-10.80608 -14.71657,0 2.63407,17.71653 -15.58242,17.71653 -14.82703,0 12.76403,-34.66176 -54.87722,6.63948 -13.554632,8.27636 -6.07952,-6.63948 2.03249,-6.63948 12.29297,0 12.26577,-17.71653 0.6775,-17.71653 -3.84847,0 8.16384,-4.31536 8.16384,-8.16382 0,-7.7907 28.90582,-16.937416 10.80606,-16.937416 -7.28451,0 -10.80606,13.232566 -10.80606,-4.064979 0,-8.114108 16.55681,-15.950906 0,-17.61491 -2.11219,-0.21228 0,-4.245656 0,-6.368483 0,-3.624609 -14.49844,0 -10.87383,0 9.94773,0 10.87383,-1.698577 10.87383,-11.246427 0,-5.443473 -29.132593,-13.77462 -10.87383,-15.58242 46.12604,-4.566939 12.59477,-26.32076 46.3069,-26.32076 11.33657,0 -17.71654,17.694179 -17.71654,29.030746 0,15.452644 17.71654,-3.402759 17.71654,14.904924 0,19.150103 27.26765,16.937413 45.83263,16.937413 2.43899,0 4.87798,0 7.31698,0 5.19414,0 0,-10.38828 0,-15.58242 0,-14.425959 46.12091,-23.723476 42.14027,-9.857592 -1.83619,6.396028 -17.33541,7.064172 -24.42374,9.180095 -12.72176,3.797548 39.94853,54.199719 9.51881,54.199719 -15.31872,0 -5.45973,-10.23021 -19.6474,-10.23021 -8.00013,0 27.84513,17.32179 27.84513,35.43307 0,10.99808 -24.69128,-6.8367 -35.43307,-8.94294 -4.52732,-0.88771 -6.09094,-8.77359 -10.70446,-8.77359 -22.0876,0 10.70446,30.54942 10.70446,35.43307 0,2.30348 4.60696,0 6.91045,0 5.23125,0 -24.62699,7.68255 -24.62699,-9.72207 0,-2.66482 0,-5.32964 0,-7.99447 z"
             inkscape:connector-curvature="0" />
          <path
             style="fill:#72acff;fill-opacity:1;fill-rule:evenodd;stroke:none"
             id="path1901"
             d="m 159.44882,141.73226 c 11.88325,0.20054 17.71653,1.92831 17.71653,-10.97543 0,-30.976151 28.1161,-31.950459 28.1161,-6.7411 0,4.35009 7.31698,6.45599 7.31698,10.80608 0,15.15593 3.93187,18.29241 -10.70446,18.29241 -2.33736,0 -4.67472,0 -7.01208,0 -3.6058,0 10.57693,-26.19603 -9.24784,-11.38196 -7.31055,5.46281 -17.21588,6.31009 -26.18523,7.99447 -7.61008,1.42913 -17.71654,3.62482 -17.71654,-7.99447 0,-10.53144 -17.71653,-41.2346 -17.71653,-26.55785 0,6.08893 24.63689,15.6021 25.71098,26.55785 0.3162,3.22524 6.48139,0 9.72209,0 z"
             inkscape:connector-curvature="0" />
          <path
             style="fill:#999999;fill-opacity:1;fill-rule:evenodd;stroke:none"
             id="path2680"
             d="m 106.36696,194.44151 8.12995,-17.27618 -0.67749,17.71654 10.19633,-10.60281 17.71653,-7.11373 -9.62046,17.71654 9.62046,-6.53783 8.67195,6.53783 h 9.04459 l -11.07708,17.71654 -6.63946,8.26546 -8.94296,-8.26546 -8.77357,8.26546 v 9.45107 h -17.71654 l 17.71654,-17.71653 h -17.71654 l -6.707219,-17.71654 z"
             inkscape:connector-curvature="0" />
          <path
             style="fill:none;stroke:#ff0000;stroke-width:2.5;stroke-linecap:butt;stroke-linejoin:miter;stroke-miterlimit:4;stroke-opacity:1"
             id="path2683"
             d="m 63.007178,31.842337 -9.857572,21.307249 17.716536,8.502599 -7.182658,34.082984 -10.533878,17.406751 v 17.61491 l 35.433071,19.6474 -17.716535,16.93741 3.676236,6.43024 16.161205,10.92964 15.595627,-7.53619 17.71654,17.71654 17.71653,42.24192 -17.71653,46.34076 h 8.09607 l 1.355,24.11888"
             inkscape:connector-curvature="0" />
          <path
             style="fill:none;stroke:#ff0000;stroke-width:2.5;stroke-linecap:butt;stroke-linejoin:miter;stroke-miterlimit:4;stroke-dasharray:none;stroke-opacity:1"
             id="path1900"
             d="m 35.22982,302.84095 17.919786,-19.3764 17.716536,17.71653 35.433068,-17.71653 v -17.71654 l 57.24881,18.4164 31.33387,-0.69986 v -17.71654 l -17.71654,-17.71653 17.71654,-35.43307 17.71654,-17.71654 17.71653,17.71654 v 17.71653 l 13.75752,2.40369 23.65506,-10.92963 33.45356,-9.19059 11.1448,-10.70444"
             inkscape:connector-curvature="0" />
          <path
             style="fill:none;stroke:#243eb4;stroke-width:1.00000003pt;stroke-linecap:butt;stroke-linejoin:miter;stroke-opacity:1"
             id="path2679"
             d="m 27.303113,194.88187 c 11.514541,0.47152 16.036815,24.53974 25.846493,28.69199 10.662661,4.51329 12.89996,6.74108 28.149978,6.74108 12.399615,0 1.242297,-10.80606 16.937414,-10.80606 7.615902,0 25.778752,-12.90602 25.778752,-24.62701 0,-3.22494 26.55617,3.45648 28.42097,7.68959 3.1501,7.15075 17.61491,5.05744 17.61491,16.93742 0,14.99684 -11.59209,2.9635 -11.00273,15.01542 -2.80058,6.42423 -5.6874,13.50718 -17.31662,13.50718 -4.84277,0 -4.30831,10.04525 -8.94296,11.44969 -16.17073,4.90022 10.12156,7.43943 15.58242,12.87244 2.82306,2.80866 16.74797,5.06478 16.74797,5.06478 0,0 13.74675,-3.36154 22.54683,-5.06478 19.13598,-3.70374 13.89757,-22.41045 16.48224,-35.06408 -3.05083,-9.76888 -0.89982,-15.161 -0.89982,-24.69112 0,-2.52724 16.26024,17.71653 16.93741,17.71653 7.22758,0 18.14182,-9.26999 18.96991,-17.71653 0.43551,-4.44225 8.87522,-5.5634 8.87522,-10.02695 0,-0.45166 0,-0.90332 0,-1.35499 0,-8.77557 3.06353,-19.30036 -1.08366,-28.20738 0.43529,-7.33502 4.36741,-13.56029 12.53333,-13.56029 7.71746,0 7.18747,-17.71654 14.90493,-17.71654 5.94424,0 0.63652,-12.40518 -2.03249,-17.71653 -4.26866,-8.49464 -15.51394,-17.71654 3.38748,-17.71654 5.49014,0 5.58623,-4.20865 8.13789,-8.95139 -0.41771,-5.034147 -2.54884,-8.765143 -7.46039,-8.765143 -7.22663,0 -14.45326,0 -21.67989,0 -4.25923,0 -7.87752,1.476023 -11.03997,2.105684 -41.08644,-6.445009 -21.6805,-19.822219 -38.41728,-19.822219 -3.60706,0 -10.39956,-11.417929 -10.39956,-17.716536 0,-7.270273 34.24746,13.662732 34.24746,-16.56477"
             inkscape:connector-curvature="0" />
          <g
             id="g1922">
            <path
               style="fill:none;stroke:#826d35;stroke-width:0.375;stroke-linecap:butt;stroke-linejoin:miter;stroke-miterlimit:4;stroke-dasharray:none;stroke-opacity:1"
               id="path1903"
               d="m 17.716535,159.4488 c -2.179709,-8.96404 18.450489,0 27.675733,0 16.055156,0 -0.744559,17.71653 15.58242,17.71653 9.202663,0 18.405326,0 27.607989,0 1.605012,0 -4.794742,-17.71653 8.299328,-17.71653 7.785065,0 6.325225,-35.43307 16.259915,-35.43307 3.55859,0 3.75283,-21.6988 4.06498,-25.101236 1.65221,-18.009074 24.52538,-25.224593 24.52538,-52.84473 0,-9.451083 0,-12.127201 0,-21.578284"
               inkscape:connector-curvature="0" />
            <path
               style="fill:none;stroke:#826d35;stroke-width:0.375;stroke-linecap:butt;stroke-linejoin:miter;stroke-miterlimit:4;stroke-dasharray:none;stroke-opacity:1"
               id="path1904"
               d="m 25.067372,141.73226 c 0,-11.9691 23.938211,0 35.907316,0 24.506532,0 12.142116,-6.2167 27.607989,-10.97543 13.435033,-4.13385 -15.933839,-24.45764 7.621831,-24.45764 3.019274,0 -4.077039,-17.716533 10.094702,-17.716533 14.3968,0 0,-28.793593 0,-43.190389 0,-3.319739 0,-6.639478 0,-9.959217"
               inkscape:connector-curvature="0" />
            <path
               style="fill:none;stroke:#826d35;stroke-width:0.375;stroke-linecap:butt;stroke-linejoin:miter;stroke-miterlimit:4;stroke-dasharray:none;stroke-opacity:1"
               id="path1905"
               d="m 177.16535,17.716515 c 0,8.999419 0,17.998838 0,26.998256 0,18.554655 -17.71653,-1.23663 -17.71653,15.582421 0,10.810024 -0.37523,17.11971 -8.36709,21.002392 -6.39627,3.107494 -11.33526,20.047716 -16.93742,24.999606 -11.35798,10.03961 -16.93741,-2.26797 -16.93741,17.71654 0,4.25743 6.80885,6.54865 6.80885,10.80608 0,23.62236 -17.71654,15.64959 -17.71654,33.87483 0,10.95103 -17.716533,6.81419 -17.716533,26.18523 0,6.43778 -11.394591,6.47384 -17.716535,7.68959 -1.151692,0.22148 -3.96652,10.02695 -17.716536,10.02695 -0.353925,0 2.887564,-17.71654 -9.789828,-17.71654 -6.048539,0 -15.496707,-10.15282 -16.937413,-17.71654 -0.0087,-0.0459 -1.890003,0 -2.03249,0"
               inkscape:connector-curvature="0" />
            <path
               style="fill:none;stroke:#826d35;stroke-width:0.375;stroke-linecap:butt;stroke-linejoin:miter;stroke-miterlimit:4;stroke-dasharray:none;stroke-opacity:1"
               id="path1906"
               d="m 35.433071,248.03148 c -1.600682,-8.4036 14.078536,17.71653 24.864121,17.71653 13.817978,0 19.203367,2.60352 28.285485,-6.94433 2.976494,-3.12913 8.810138,-7.66194 11.009314,-10.7722 7.102729,-10.0453 6.707219,27.6757 6.707219,27.70961 0,5.6269 11.97278,15.22286 17.71654,16.93741 8.82025,2.63291 20.12878,-0.83017 28.42097,-1.35499 2.3327,-0.14764 4.67473,0 7.0121,0 3.28586,0 0,6.57171 0,9.85757"
               inkscape:connector-curvature="0" />
            <path
               style="fill:none;stroke:#826d35;stroke-width:0.375;stroke-linecap:butt;stroke-linejoin:miter;stroke-miterlimit:4;stroke-dasharray:none;stroke-opacity:1"
               id="path1907"
               d="m 167.6804,301.18108 c 6.88789,0 13.77576,0 15.92116,0 9.79425,0 18.26209,-7.55319 28.99687,-10.53507 2.30649,-0.64069 0,-4.78764 0,-7.18146 0,-6.63571 17.71653,-2.44274 17.71653,-9.07845 0,-33.27417 13.19356,-18.52847 35.43307,-35.26371 9.05027,-6.81033 15.20896,7.58632 17.71654,-17.6149 0.21355,-2.1461 15.55983,8.80745 17.71653,8.80745 14.2745,0 -4.26498,-28.33992 -8.5026,-41.9709 -1.34421,-4.3239 7.56593,-10.16499 8.5026,-11.17871"
               inkscape:connector-curvature="0" />
            <path
               style="fill:none;stroke:#826d35;stroke-width:0.375;stroke-linecap:butt;stroke-linejoin:miter;stroke-miterlimit:4;stroke-dasharray:none;stroke-opacity:1"
               id="path1908"
               d="m 212.59843,312.3259 c -1.60661,-5.16791 55.63952,-46.57789 63.82016,-46.57789 11.06577,0 22.13155,0 33.19733,0"
               inkscape:connector-curvature="0" />
          </g>
          <path
             style="color:#000000;display:inline;overflow:visible;visibility:visible;fill:#e7ffc3;fill-opacity:0.39215698;stroke:none;stroke-width:1.39999998;marker:none"
             id="rect2896"
             d="M 87.397053,36.58481 158.10695,18.868279 177.0091,88.582656 106.29921,106.29919 Z"
             inkscape:connector-curvature="0" />
          <path
             style="color:#000000;display:inline;overflow:visible;visibility:visible;fill:#e7ffc3;fill-opacity:0.39215698;stroke:none;stroke-width:1.39999998;marker:none"
             id="rect2896-0"
             d="m 88.108429,177.32158 70.709901,-17.71653 18.19077,70.7099 -70.70989,17.71653 z"
             inkscape:connector-curvature="0" />
          <path
             style="color:#000000;display:inline;overflow:visible;visibility:visible;fill:#535400;fill-opacity:0.17647101;stroke:none;stroke-width:1.39999998;marker:none"
             id="rect2896-9"
             d="M 17.716535,17.716515 87.397053,36.58481 106.29921,106.29919 35.907316,88.752046 Z"
             inkscape:connector-curvature="0" />
          <path
             style="color:#000000;display:inline;overflow:visible;visibility:visible;fill:#535400;fill-opacity:0.17647101;stroke:none;stroke-width:1.39999998;marker:none"
             id="rect2896-9-0"
             d="m 159.29257,159.4488 71.0224,17.71653 17.71653,70.86615 -71.0224,-17.71653 z"
             inkscape:connector-curvature="0" />
          <path
             style="color:#000000;display:inline;overflow:visible;visibility:visible;fill:#e7ffc3;fill-opacity:0.39215698;stroke:none;stroke-width:1.39999998;marker:none"
             id="rect2896-06"
             d="M 229.28559,36.584811 299.99549,18.86828 318.89764,88.582657 248.0315,106.29919 Z"
             inkscape:connector-curvature="0" />
          <path
             style="color:#000000;display:inline;overflow:visible;visibility:visible;fill:#e7ffc3;fill-opacity:0.39215698;stroke:none;stroke-width:1.39999998;marker:none"
             id="rect2896-7"
             d="m 230.31497,177.16533 70.23564,-17.56028 18.90215,69.71437 -70.70989,17.71654 z"
             inkscape:connector-curvature="0" />
          <path
             style="color:#000000;display:inline;overflow:visible;visibility:visible;fill:#535400;fill-opacity:0.17647101;stroke:none;stroke-width:1.39999998;marker:none"
             id="rect2896-9-8"
             d="m 17.716535,159.4488 70.866142,17.71653 17.716533,70.86615 -70.866139,-17.71654 z"
             inkscape:connector-curvature="0" />
          <path
             style="color:#000000;display:inline;overflow:visible;visibility:visible;fill:#535400;fill-opacity:0.17647101;stroke:none;stroke-width:1.39999998;marker:none"
             id="rect2896-9-02"
             d="m 158.10695,18.868279 71.0224,17.716537 18.90215,69.714374 -71.0224,-17.716534 z"
             inkscape:connector-curvature="0" />
          <path
             style="color:#000000;display:inline;overflow:visible;visibility:visible;fill:#535400;fill-opacity:0.352941;stroke:none;stroke-width:1.39999998;marker:none"
             id="rect2896-9-5"
             d="M 35.907316,88.752046 106.29921,106.29919 88.582677,177.16533 17.716535,159.77444 Z"
             inkscape:connector-curvature="0" />
          <path
             style="color:#000000;display:inline;overflow:visible;visibility:visible;fill:#535400;fill-opacity:0.352941;stroke:none;stroke-width:1.39999998;marker:none"
             id="rect2896-9-5-1"
             d="M 35.433071,230.31494 106.29921,248.03148 88.582677,318.89762 17.716535,301.18108 Z"
             inkscape:connector-curvature="0" />
          <path
             style="color:#000000;display:inline;overflow:visible;visibility:visible;fill:#535400;fill-opacity:0.352941;stroke:none;stroke-width:1.39999998;marker:none"
             id="rect2896-9-5-1-6"
             d="m 177.0091,230.31495 71.0224,17.71653 -17.8728,70.86615 -70.86614,-17.71654 z"
             inkscape:connector-curvature="0" />
          <path
             style="color:#000000;display:inline;overflow:visible;visibility:visible;fill:#535400;fill-opacity:0.352941;stroke:none;stroke-width:1.39999998;marker:none"
             id="rect2896-9-5-1-4"
             d="m 177.16535,88.582657 70.86615,17.716533 -17.71653,70.86614 -71.0224,-17.71653 z"
             inkscape:connector-curvature="0" />
          <g
             id="g2671">
            <path
               style="opacity:0.32926803;fill:none;stroke:#000000;stroke-width:1.25;stroke-linecap:butt;stroke-linejoin:miter;stroke-miterlimit:4;stroke-dasharray:none;stroke-dashoffset:0pt;stroke-opacity:1"
               id="path2523"
               d="M 35.907316,88.752046 106.29921,106.29919 177.16535,88.582657 248.0315,106.29919 318.89764,88.582657"
               inkscape:connector-curvature="0" />
            <path
               style="opacity:0.32926803;fill:none;stroke:#000000;stroke-width:1.25;stroke-linecap:butt;stroke-linejoin:miter;stroke-miterlimit:4;stroke-dasharray:none;stroke-dashoffset:0pt;stroke-opacity:1"
               id="path2524"
               d="m 87.397053,36.584813 18.902157,69.714377 -17.716533,70.86614 17.716533,70.86615 -17.716533,70.86614"
               inkscape:connector-curvature="0" />
            <path
               style="opacity:0.32926803;fill:none;stroke:#000000;stroke-width:1.25;stroke-linecap:butt;stroke-linejoin:miter;stroke-miterlimit:4;stroke-dasharray:none;stroke-dashoffset:0pt;stroke-opacity:1"
               id="path2525"
               d="m 158.10695,18.868282 18.90215,69.714377 -17.71653,70.866141 17.71653,70.86615 -17.71653,70.86614"
               inkscape:connector-curvature="0" />
            <path
               style="opacity:0.32926803;fill:none;stroke:#000000;stroke-width:1.25;stroke-linecap:butt;stroke-linejoin:miter;stroke-miterlimit:4;stroke-dasharray:none;stroke-dashoffset:0pt;stroke-opacity:1"
               id="path2526"
               d="m 229.12935,36.584816 18.90215,69.714374 -17.71653,70.86614 17.71653,70.86615 -17.71653,70.86614"
               inkscape:connector-curvature="0" />
            <path
               style="opacity:0.32926803;fill:none;stroke:#000000;stroke-width:1.25;stroke-linecap:butt;stroke-linejoin:miter;stroke-miterlimit:4;stroke-dasharray:none;stroke-dashoffset:0pt;stroke-opacity:1"
               id="path2527"
               d="m 17.716535,159.77444 70.391894,17.54714 70.866141,-17.71653 71.3404,17.56028 70.39189,-17.56028"
               inkscape:connector-curvature="0" />
            <path
               style="opacity:0.32926803;fill:none;stroke:#000000;stroke-width:1.25;stroke-linecap:butt;stroke-linejoin:miter;stroke-miterlimit:4;stroke-dasharray:none;stroke-dashoffset:0pt;stroke-opacity:1"
               id="path2528"
               d="m 35.433071,230.31494 70.391889,17.54714 71.18414,-17.54713 71.0224,17.71653 70.3919,-17.88593"
               inkscape:connector-curvature="0" />
            <path
               style="fill:none;stroke:#000000;stroke-width:6.25;stroke-linecap:butt;stroke-linejoin:miter;stroke-miterlimit:4;stroke-opacity:1"
               id="path2670"
               d="M 17.61491,18.292406 88.582677,35.433051 159.44882,17.716515 230.31496,35.433051 301.1811,17.716515 318.89764,88.582657 301.1811,159.4488 318.89764,230.31494 301.1811,301.18108 230.31496,318.89762 159.44882,301.18108 88.582677,318.89762 17.716535,301.18108 35.433071,230.31494 17.716535,159.4488 35.433071,88.582657 Z"
               inkscape:connector-curvature="0" />
          </g>
        </g>
      </g>
      <text
         clip-path="url(#clipPath4692)"
         id="text4404"
         y="57.085167"
         x="133.3914"
         style="font-style:normal;font-variant:normal;font-weight:bold;font-stretch:normal;line-height:0%;font-family:sans-serif;-inkscape-font-specification:'Sans Bold';text-align:start;writing-mode:lr-tb;text-anchor:start;display:block;opacity:0.5;fill:#000000;fill-opacity:1;stroke:none"
         xml:space="preserve"><tspan
           style="font-size:37.60076141px;line-height:0.80000001;font-family:sans-serif"
           id="tspan4410"
           y="57.085167"
           x="133.3914"
           sodipodi:role="line">00100010</tspan><tspan
           style="font-size:37.60076141px;line-height:0.80000001;font-family:sans-serif"
           id="tspan4417"
           y="87.165779"
           x="133.3914"
           sodipodi:role="line">01000100</tspan><tspan
           style="font-size:37.60076141px;line-height:0.80000001;font-family:sans-serif"
           id="tspan4419"
           y="117.24638"
           x="133.3914"
           sodipodi:role="line">01110111</tspan><tspan
           style="font-size:37.60076141px;line-height:0.80000001;font-family:sans-serif"
           id="tspan4425"
           y="147.327"
           x="133.3914"
           sodipodi:role="line">00100010</tspan><tspan
           style="font-size:37.60076141px;line-height:0.80000001;font-family:sans-serif"
           id="tspan4421"
           y="177.40761"
           x="133.3914"
           sodipodi:role="line">01000100</tspan><tspan
           style="font-size:37.60076141px;line-height:0.80000001;font-family:sans-serif"
           id="tspan4423"
           y="207.48822"
           x="133.3914"
           sodipodi:role="line">01110111</tspan></text>
      <g
         style="display:block"
         id="layer1-6">
        <g
           style="display:block"
           id="g2489">
          <g
             id="g1774"
             transform="rotate(45,268.97367,117.12866)">
            <path
               style="fill:url(#linearGradient1777);fill-opacity:1;stroke:#000000;stroke-width:6.25;stroke-linecap:butt;stroke-linejoin:miter;stroke-miterlimit:4;stroke-opacity:1"
               id="path1736"
               d="m 248.03125,35.4375 c -58.67716,0 -106.3125,47.604086 -106.3125,106.28125 0,52.62685 38.35814,96.25709 88.59375,104.71875 v 37.03125 H 265.75 V 246.4375 c 50.23562,-8.46166 88.59377,-52.0919 88.59375,-104.71875 0,-58.677164 -47.63534,-106.28125 -106.3125,-106.28125 z m 0,17.71875 c 48.89764,0 88.59375,39.664861 88.59375,88.5625 10e-6,48.89764 -39.69611,88.59375 -88.59375,88.59375 -48.89764,1e-5 -88.59375,-39.69611 -88.59375,-88.59375 -1e-5,-48.897639 39.69611,-88.5625 88.59375,-88.5625 z"
               inkscape:connector-curvature="0" />
            <rect
               style="fill:url(#linearGradient1778);fill-opacity:1;stroke:url(#linearGradient1779);stroke-width:7.61230993;stroke-linecap:butt;stroke-linejoin:round;stroke-miterlimit:4;stroke-opacity:1"
               id="rect1762"
               y="280.64615"
               x="212.59842"
               ry="20"
               rx="20"
               height="157.6528"
               width="70.866142" />
          </g>
          <path
             style="fill:url(#radialGradient2415);fill-opacity:1;stroke:none"
             id="path2410"
             transform="matrix(0.933079,0,0,0.933079,15.9212,6.43622)"
             d="m 248.03149,70.866119 a 35.433071,35.433071 0 1 1 -70.86614,0 35.433071,35.433071 0 1 1 70.86614,0 z"
             inkscape:connector-curvature="0" />
          <path
             style="fill:url(#linearGradient2422);fill-opacity:1;stroke:none"
             id="path2416"
             d="m 315.0625,109.375 c -15.36547,42.0745 -55.62842,72.1875 -103,72.1875 -8.64475,0 -17.02349,-1.10746 -25.09375,-3 13.75135,13.16391 32.34998,21.3125 52.875,21.3125 42.25952,0 76.56251,-34.30298 76.5625,-76.5625 0,-4.76122 -0.51069,-9.41608 -1.34375,-13.9375 z"
             inkscape:connector-curvature="0" />
        </g>
      </g>
    </g>
    <g
       transform="translate(408.22749,-26.931246)"
       id="g1191">
      <path
         sodipodi:nodetypes="sscccsscsscccccsscccccssssssssscsccsssssssscccccsccccsscccssssssscsccsscsssssssscccsssssssssscssssssssscsssscssssssssssssscsssscccssssssscscsscccsscccssscsscsssssssssssscsssscsssccssccccccccsscccscsscccccsssssccsscssssscsssccsscscccsssscscssscccccccsssssssssssscccsssccccscsccccccscccscsssssssssscsssccccccccccccccsssc"
         inkscape:connector-curvature="0"
         id="path3066"
         d="m 264.45054,142.55721 c -0.28507,-0.18159 -0.34419,-6.25556 -0.2863,-29.41474 l 0.0729,-29.185878 29.41256,-0.0729 29.41257,-0.0729 0.15599,0.64554 c 0.0858,0.35505 0.12062,13.59391 0.0774,29.419688 l -0.0787,28.77416 -29.20361,0.068 c -16.062,0.0373 -29.3653,-0.0351 -29.5629,-0.1609 z m 19.05881,-3.55735 c 0.0536,1.5804 -0.14621,-3.66311 0.0538,-3.43106 v -6.12229 -6.12228 l -4.36623,0.001 c -4.97006,0.002 -5.55083,0.19638 -7.46211,2.50185 -1.25346,1.51199 -2.37608,2.47187 -4.6086,3.94053 -1.63769,1.07737 -1.74913,1.22171 -1.83235,2.37341 -0.003,7.96629 0.12826,9.43284 0.12826,9.43284 2.75472,-0.0774 14.27724,0.0193 15.67869,0.009 l 2.54808,0.0646 z m -10.96919,-1.0339 c -1.85047,-1.14302 -2.72322,-2.87944 -2.71365,-5.39905 0.0108,-2.74117 1.22255,-4.70036 3.49572,-5.65014 2.93328,-1.22562 6.98918,0.6501 6.74751,3.12049 -0.13553,1.38541 -1.16054,1.34394 -2.06159,-0.0834 -1.45507,-2.30497 -4.21539,-2.14818 -5.32771,0.30262 -1.42315,3.13561 0.0466,6.52432 2.8298,6.52432 1.01205,0 2.47729,-1.13827 2.72241,-2.1149 0.34222,-1.36352 1.89473,-1.23604 1.89473,0.15557 0,2.24982 -1.9142,3.67791 -4.92744,3.67613 -1.25188,-8.7e-4 -2.06268,-0.16281 -2.65978,-0.53164 z m 25.58777,3.46952 5.06652,-0.19745 0.0591,-5.38774 c 0.0306,-2.79526 -0.025,-5.082 -0.15103,-5.082 -0.51826,0 -1.56012,0.98017 -2.82547,2.65814 -3.31261,4.39287 -4.71284,5.14513 -6.22715,3.34546 -0.79825,-0.94864 -1.0823,-1.79835 -1.79164,-5.35942 -0.31338,-1.57322 -0.60085,-2.36204 -0.86079,-2.36204 -0.44614,0 -0.52639,-0.89463 -0.11698,-1.30403 0.17353,-0.17352 0.1609,-1.0306 -0.0346,-2.34773 l -0.30789,-2.07444 h -3.55469 -3.55468 l 0.0625,9.16192 0.0626,9.16191 3.45513,-0.0267 c 1.90032,-0.0147 4.52456,0.0536 7.91018,-0.12858 z m 20.1364,-0.0531 c 4.15011,0.17906 4.0323,0.20492 4.08208,0.15512 0.0498,-0.0498 -0.004,-4.97334 -0.14279,-8.90942 -0.13884,-3.93607 -0.2575,-7.63965 -0.2637,-8.23016 l -0.0112,-1.07366 h -6.14256 -6.14255 l -1.0152,1.32956 c -0.55836,0.73126 -1.01519,1.49377 -1.01519,1.69444 0,0.85578 0.38392,1.27065 1.17587,1.27065 0.69264,0 0.82829,0.11722 0.82829,0.71577 0,0.71521 -0.002,0.71578 -2.8297,0.71578 -2.69249,0 -2.83809,0.0313 -3.00234,0.64419 -0.0949,0.35431 -0.17442,2.99552 -0.17656,5.86936 l -0.11854,5.66464 1.90409,0.0878 c 0.98315,0.0453 4.61174,-0.0558 8.91472,0.1041 z m -21.0035,-5.53206 c 0.64469,-0.66925 1.69267,-1.91792 2.32886,-2.77481 l 1.15672,-1.55799 -0.97697,-0.55835 c -0.53734,-0.30707 -1.11541,-0.86216 -1.28461,-1.23352 -0.29187,-0.64057 -0.44744,-0.67519 -3.03373,-0.67519 -3.10971,0 -2.92545,-0.23341 -2.31882,2.93712 0.61762,3.22796 1.55932,5.07956 2.58342,5.07956 0.20514,0 0.90045,-0.54757 1.54513,-1.21682 z m -29.44478,-7.46941 c 0.70862,-0.47909 2.19642,-1.81285 3.30624,-2.96388 l 2.01784,-2.09277 h -4.09359 -4.09359 v 1.5327 c 0,0.843 0.0822,2.31963 0.18278,3.28144 0.20715,1.98183 0.11952,1.97391 2.68032,0.24251 z m 34.49544,1.06301 c 0.67001,-0.66998 0.43578,-1.86934 -0.46313,-2.37158 -0.67565,-0.37749 -0.83249,-0.37027 -1.50314,0.0692 -0.85537,0.56046 -0.99252,1.6243 -0.29884,2.31797 0.58273,0.58274 1.67433,0.57524 2.26511,-0.0156 z m -7.84282,-3.4713 c 2.70537,-2.8143 2.71984,-2.64836 -0.23092,-2.64836 h -2.56573 l 0.2549,1.78943 c 0.30083,2.11188 0.41489,2.50522 0.7265,2.50522 0.12797,0 0.94484,-0.74083 1.81525,-1.64629 z m 3.98255,1.34695 c 0,-0.16462 0.31625,-0.61555 0.70277,-1.00207 0.54203,-0.54204 1.00336,-0.70276 2.01718,-0.70276 1.01381,0 1.47514,0.16072 2.01717,0.70276 0.38653,0.38652 0.70277,0.84561 0.70277,1.02022 0,0.18569 0.38622,0.28022 0.93051,0.22775 l 0.93051,-0.0897 -0.0306,-1.60674 c -0.0525,-2.7519 -0.16005,-2.92717 -2.2502,-3.66506 -1.02769,-0.3628 -2.03457,-0.59593 -2.23751,-0.51805 -0.20294,0.0779 -1.57041,1.44466 -3.03884,3.0373 l -2.66983,2.89571 h 1.46305 c 0.82689,0 1.46304,-0.13015 1.46304,-0.29933 z m 10.02085,-3.74406 c 0,-0.13819 -0.24562,-0.25125 -0.54582,-0.25125 -0.40675,0 -0.50725,0.14741 -0.39448,0.57866 0.11889,0.45465 0.23584,0.50848 0.5458,0.25123 0.21698,-0.18006 0.3945,-0.44046 0.3945,-0.57864 z m -24.9624,-1.61124 c 0.0493,-0.51177 0.0155,-0.9305 -0.0752,-0.9305 -0.0907,0 -1.09479,0.25768 -2.2313,0.57263 -1.1365,0.31492 -2.32663,0.57843 -2.64474,0.58553 -0.3181,0.008 -0.96489,0.19217 -1.4373,0.41127 -0.78107,0.36223 -0.53451,0.3935 2.71994,0.34496 l 3.57887,-0.0533 z m 7.21118,0.21054 c 0,-1.68643 -2.21919,-2.37763 -5.4258,-1.68993 -1.43784,0.30837 -1.44564,0.31609 -1.44564,1.43155 v 1.12151 h 3.43572 3.43572 z m 31.19073,-1.21261 c -0.01,-1.14167 -0.11699,-2.68237 -0.23912,-3.4238 -0.21988,-1.33496 -1.52888,-3.59626 -2.23962,-3.869 -1.3172,-0.50546 -3.62937,1.45557 -6.98867,5.92732 -1.23983,1.65041 -2.25424,3.09988 -2.25424,3.22099 0,0.12113 2.64121,0.22023 5.86936,0.22023 h 5.86935 z m -46.32958,1.34407 c 0.68905,-0.24494 2.09027,-0.62909 3.11383,-0.85369 1.02356,-0.22458 2.4408,-0.58518 3.14941,-0.80132 1.18954,-0.36288 1.29521,-0.47312 1.37725,-1.43681 0.0914,-3.18487 0.0543,-5.16698 0.0543,-9.92727 v -5.74824 l -1.49149,0.0866 c -1.3134,0.0762 -1.51511,0.17202 -1.68932,0.80232 l -0.50213,1.20734 0.27576,-1.27892 -0.0286,-0.78735 H 272.388 c -5.72564,0 -7.48508,0.0835 -7.59133,0.36036 -0.0761,0.19821 -0.1042,4.48213 -0.0625,9.51982 l 0.0756,9.15944 0.75696,-1.43363 c 0.41633,-0.78849 1.67251,-2.49312 2.79152,-3.78808 l 2.03457,-2.35446 v -4.14695 c 0,-3.80694 0.0455,-4.17124 0.5538,-4.44333 1.05413,-0.56415 1.45384,-0.28552 3.06619,2.13726 0.89074,1.3385 1.71405,2.43364 1.82956,2.43364 0.11551,0 0.67595,-0.51573 1.24542,-1.14608 0.82408,-0.91216 1.0354,-1.37852 1.0354,-2.28502 0,-0.97611 0.10237,-1.16465 0.71577,-1.3186 0.39369,-0.0988 0.7244,-0.39116 0.73493,-0.64966 0.0108,-0.25851 0.20184,0.10977 0.42512,0.81838 0.47168,1.49698 0.58155,9.83091 0.14475,10.97981 -0.32588,0.85714 -1.21233,1.19146 -2.0171,0.76077 -0.32493,-0.1739 -1.31102,-1.43722 -2.1913,-2.80739 -0.88029,-1.37016 -1.63883,-2.5337 -1.68568,-2.58566 -0.0469,-0.0519 -0.41843,0.12392 -0.82576,0.39083 -0.67196,0.44028 -0.74062,0.65926 -0.74062,2.36239 0,1.34489 -0.13435,2.02557 -0.47384,2.40069 -0.86817,0.95932 -1.72895,0.44704 -2.07266,-1.23352 l -0.18298,-0.89465 -1.37311,1.60722 c -1.32623,1.55237 -3.34147,4.63278 -3.34147,5.10762 0,0.12737 2.04524,0.23158 4.54496,0.23158 3.38424,0 4.86491,-0.11374 5.79778,-0.44536 z m 23.05598,-0.77144 c 0.70952,-0.77184 1.71757,-2.548 2.75641,-4.85676 l 1.63779,-3.6399 v -4.73466 -4.73465 h -9.59138 -9.59139 l 0.009,5.79777 c -0.035,3.60566 0.0115,7.48425 -0.009,9.68051 v 0.87649 l 1.35997,-0.2323 c 3.52646,-0.60228 5.73263,0.10892 6.20616,2.00072 l 0.26523,1.05958 h 2.9193 2.91929 z m 12.61739,-1.60673 c 3.67881,-4.9881 6.04264,-7.19732 7.70105,-7.19732 0.75963,0 2.20184,1.37128 2.96873,2.82271 l 0.55081,1.04247 0.0127,-6.51355 0.0127,-6.51355 h -6.12766 -6.12766 l -0.31432,0.90165 c -0.17287,0.49591 -0.31431,0.93288 -0.31431,0.97105 0,0.0382 0.32209,0.15024 0.71577,0.24905 0.39368,0.0988 0.71577,0.34896 0.71577,0.5559 0,0.28728 -2.552,11.60058 -3.57782,15.86092 -0.13716,0.56963 -0.0467,0.64303 0.78084,0.63412 0.84873,-0.009 1.12869,-0.27141 3.00349,-2.81345 z m -33.41847,-8.25297 v -2.20089 l -0.85893,0.8229 c -0.47241,0.4526 -0.85893,0.93042 -0.85893,1.06179 0,0.26295 1.44429,2.5171 1.61275,2.5171 0.0578,0 0.10507,-0.99041 0.10507,-2.2009 z m -4.36292,1.18576 0.63176,-0.4425 -0.74926,-1.1322 c -0.41208,-0.62271 -0.79655,-1.1322 -0.85436,-1.1322 -0.0578,0 -0.10508,0.70861 -0.10508,1.57472 0,1.69636 0.10857,1.81048 1.07697,1.13218 z m 34.84256,-2.83036 c 0.5908,-2.81528 0.59067,-2.8828 -0.005,-2.8828 -0.27933,0 -0.86432,0.88792 -1.55972,2.36737 l -1.11276,2.36733 0.91552,0.38422 c 0.50354,0.21134 0.99085,0.34335 1.08292,0.29339 0.0921,-0.05 0.39768,-1.18824 0.67916,-2.52951 z m -2.98364,-1.97065 c 1.43848,-3.1963 1.56136,-3.37271 2.232,-3.20439 0.44344,0.1113 0.79881,0.0377 0.94721,-0.19637 0.59682,-0.94104 0.27783,-1.09026 -2.33052,-1.09026 h -2.57679 v 4.05606 c 0,2.23084 0.0463,4.00237 0.10291,3.93676 0.0566,-0.0656 0.78793,-1.64143 1.62519,-3.5018 z m -25.20552,-5.36502 c 0,-1.85777 0.96459,-4.646408 2.17673,-6.293008 l 1.27213,-1.72806 -0.0781,-5.07227 -0.0781,-5.07228 h -9.30508 -9.30508 l -0.0755,9.37665 -0.0755,9.376658 h 7.73429 c 7.60947,0 7.73428,-0.01 7.73428,-0.58769 z m -7.66662,-3.881258 c -2.48823,-1.26602 -3.57551,-4.60882 -2.57992,-7.93182 1.44014,-4.80673 9.31841,-4.80673 10.75853,0 0.87098,2.90704 0.12835,5.93863 -1.81849,7.42359 -0.93945,0.71655 -1.3693,0.83626 -3.25216,0.90567 -1.58608,0.0584 -2.422,-0.0484 -3.10796,-0.39744 z m 4.94962,-2.20501 c 2.15401,-2.15402 1.42186,-6.57617 -1.21984,-7.36764 -1.64373,-0.49247 -3.06415,0.17765 -3.79642,1.79107 -1.41023,3.1072 0.11734,6.52433 2.91659,6.52433 0.92213,0 1.34094,-0.18905 2.09967,-0.94776 z m 5.82351,4.455058 c -0.0236,-1.220398 0.16091,-5.984298 0.0953,-5.551248 -0.11686,-0.32144 -0.75921,1.03062 -1.62098,2.1494 -0.4136,0.54612 -1.29452,3.971128 -1.29452,5.033058 0,0.51434 0.17864,0.58769 1.43154,0.58769 h 1.43155 z m 19.79829,-7.106498 v -9.32539 l -2.57745,0.0919 c -1.41759,0.0505 -2.57714,-0.004 -2.57679,-0.12283 2.9e-4,-0.1181 -3.1559,-0.21473 -7.01394,-0.21473 h -7.01459 v 5.06659 5.06659 l 2.29085,-2.06304 0.11396,0.067 -2.36107,2.25708 c -0.20128,2.86635 -0.0601,4.05544 -0.0672,6.607388 l 0.0234,1.89481 h 9.59138 9.59138 z m -16.88395,-1.47798 c 0.015,-0.39562 6.02216,-4.57699 6.02216,-4.19183 0,0.0748 -0.78745,0.63753 -1.37796,0.99299 -0.59051,0.35546 -1.87891,1.27003 -2.8631,2.03236 -0.98419,0.76232 -1.78568,1.28725 -1.7811,1.16648 z m 6.00417,-4.17424 c 0,-0.0855 0.80525,-0.63481 1.78944,-1.22082 0.98419,-0.58601 2.20817,-1.31446 2.71995,-1.61878 0.51177,-0.30433 0.9305,-0.48408 0.9305,-0.39944 0,0.0846 -0.93409,0.69633 -2.07575,1.35933 -1.14166,0.663 -2.36564,1.39212 -2.71994,1.62026 -0.35431,0.22815 -0.6442,0.3449 -0.6442,0.25945 z m 17.1786,13.975538 c 0.34709,-1.05171 0.47925,-1.14332 1.09027,-0.75582 0.24342,0.15439 0.30771,0.50356 0.1837,0.9977 l -0.1908,0.7602 h 6.04354 6.04355 v -9.305078 -9.30507 h -9.44823 -9.44823 v 9.30507 9.305078 h 2.69775 2.69773 z m 0.89917,-1.38775 -3.53864,-1.123048 3.0265,-3.02649 c 1.66458,-1.66457 3.09284,-2.96014 3.17393,-2.87906 0.25918,0.25918 1.05865,6.221628 0.96604,7.204748 l -0.0892,0.94688 z"
         style="fill:#000000;stroke-width:0.28630999" />
      <path
         inkscape:connector-curvature="0"
         id="path3903"
         d="m 319.88923,141.41449 c -0.57132,-0.0337 -2.08584,-0.0628 -3.36561,-0.0647 -4.01234,-0.007 -11.94296,-0.0998 -12.49071,-0.14742 l -0.52412,-0.0457 0.0511,-1.5926 c 0.0281,-0.87591 0.0848,-3.38756 0.12605,-5.58143 0.0448,-2.38262 0.11124,-4.11397 0.16504,-4.29952 0.0496,-0.17085 0.1726,-0.35657 0.27343,-0.41271 0.12501,-0.0696 0.92376,-0.12025 2.51019,-0.15923 1.27975,-0.0315 2.41096,-0.0608 2.51381,-0.0651 0.31205,-0.0132 0.51938,-0.29474 0.51938,-0.70511 0,-0.53864 -0.16653,-0.68192 -0.91412,-0.78643 -0.50262,-0.0702 -0.65873,-0.12821 -0.80653,-0.29931 -0.20776,-0.24054 -0.31695,-0.69302 -0.24063,-0.99713 0.0584,-0.23279 1.01329,-1.67556 1.58377,-2.39303 l 0.37993,-0.47783 h 6.10674 6.10673 l 10e-4,0.39473 c 5.8e-4,0.2171 0.0751,2.63846 0.16547,5.3808 0.0904,2.74235 0.1894,6.64085 0.2201,8.66332 l 0.0558,3.67724 -0.69912,-0.0138 c -0.38452,-0.008 -1.16658,-0.0414 -1.73789,-0.075 z"
         style="fill:#e7c4ad;fill-opacity:1;stroke:none;stroke-width:0.28630999" />
      <path
         inkscape:connector-curvature="0"
         id="path3905"
         d="m 311.10732,122.89516 c -0.41945,-0.0274 -0.78473,-0.0719 -0.81174,-0.0988 -0.05,-0.05 0.6746,-1.11329 1.77762,-2.6084 1.21353,-1.6449 2.55078,-3.25966 3.53302,-4.26624 1.54331,-1.58154 2.5594,-2.25473 3.40574,-2.2564 0.3882,-8.6e-4 0.43464,0.0238 0.84404,0.44648 0.79045,0.8161 1.59424,2.4262 1.77255,3.55072 0.12567,0.7925 0.25236,2.87232 0.25382,4.16669 l 0.001,1.14264 -5.00685,-0.0134 c -2.75377,-0.008 -5.35004,-0.0358 -5.76949,-0.0632 v 0 z"
         style="fill:#e7c4ad;fill-opacity:1;stroke:none;stroke-width:0.28630999" />
      <path
         inkscape:connector-curvature="0"
         id="path3907"
         d="m 283.96161,136.53809 c -0.0303,-2.77662 -0.0552,-6.87144 -0.0552,-9.09959 l -7e-5,-4.0512 h 3.48866 3.48868 l 0.0412,0.18699 c 0.1295,0.5877 0.38729,2.68468 0.40035,3.25659 0.0126,0.55221 -0.0173,0.73141 -0.17,1.01982 -0.10193,0.19241 -0.18529,0.48223 -0.18529,0.64403 0,0.28964 0.0681,0.38756 0.48219,0.69331 0.25678,0.1896 0.44077,0.78138 0.8934,2.87346 0.63896,2.95322 0.88768,3.69337 1.52939,4.55101 0.52777,0.70537 1.00414,1.01373 1.62737,1.05341 0.4214,0.0268 0.57967,-0.004 0.93018,-0.1817 0.92047,-0.46645 1.90559,-1.48714 3.93218,-4.07419 1.03038,-1.31535 1.95069,-2.25639 2.43952,-2.49447 0.25218,-0.12285 0.258,-0.12095 0.30951,0.0998 0.0289,0.12376 0.0569,2.45588 0.0623,5.18251 l 0.01,4.9575 -0.39473,0.0471 c -0.21711,0.0259 -1.74098,0.0868 -3.38638,0.13539 -1.64541,0.0486 -3.96393,0.12447 -5.15228,0.16861 -1.18835,0.0442 -3.97754,0.0802 -6.1982,0.0802 l -4.03756,-8e-5 -0.0551,-5.04841 z"
         style="fill:#e7c4ad;fill-opacity:1;stroke:none;stroke-width:0.28630999" />
      <path
         inkscape:connector-curvature="0"
         id="path3911"
         d="m 273.34432,141.52418 -7.86125,-0.0216 -0.0541,-0.88509 c -0.0298,-0.48679 -0.0534,-2.72098 -0.0524,-4.96486 0.002,-3.79265 0.0127,-4.1037 0.15585,-4.41897 0.17905,-0.39421 0.48556,-0.65347 1.9614,-1.65895 2.01021,-1.36951 2.81385,-2.07171 4.36204,-3.81132 1.35911,-1.52718 1.86062,-1.87068 3.1772,-2.17617 0.50802,-0.11788 1.23357,-0.1462 4.53804,-0.17714 l 3.93334,-0.0368 -0.0199,7.88088 c -0.0109,4.33448 0.01,8.43247 0.0459,9.10663 l 0.0658,1.22574 -1.19537,-0.0203 c -0.65745,-0.0111 -4.73293,-0.0301 -9.05661,-0.042 z m 3.78928,-3.21231 c 1.78523,-0.5014 2.84653,-1.60134 3.00312,-3.11245 0.0939,-0.90685 -0.24838,-1.50755 -0.85916,-1.50755 -0.51263,0 -0.82569,0.2673 -1.07063,0.9141 -0.30668,0.80984 -1.02266,1.52923 -1.91688,1.92601 -0.85974,0.38147 -1.99859,0.1334 -2.81561,-0.61331 -0.80588,-0.73653 -1.18522,-1.60847 -1.26116,-2.8989 -0.15272,-2.59497 1.39043,-4.75719 3.30118,-4.62556 0.98911,0.0682 1.60362,0.47455 2.50207,1.65481 0.56758,0.74561 0.88638,0.9972 1.27761,1.00829 0.54404,0.0155 0.8319,-0.49837 0.77501,-1.38331 -0.077,-1.19822 -1.0279,-2.21131 -2.62137,-2.79286 -3.24235,-1.18331 -6.58609,0.51954 -7.4196,3.77855 -0.33827,1.32257 -0.30091,3.02028 0.0941,4.2787 0.28805,0.91758 0.64131,1.49106 1.35656,2.20219 1.16466,1.15795 1.81406,1.38274 3.86806,1.33885 0.88065,-0.0188 1.44579,-0.0719 1.78667,-0.16756 z"
         style="fill:#e7c4ad;fill-opacity:1;stroke:none;stroke-width:0.28630999" />
      <path
         inkscape:connector-curvature="0"
         id="path3913"
         d="m 276.88097,122.81098 c 0.0956,-0.1546 1.02518,-0.43936 2.20551,-0.67557 0.66273,-0.13264 1.90931,-0.42355 2.77018,-0.64645 1.2562,-0.3253 1.57392,-0.38257 1.60942,-0.2901 0.0244,0.0634 0.0176,0.46951 -0.0148,0.90254 l -0.0591,0.7873 h -3.27966 c -2.01393,0 -3.26111,-0.03 -3.23161,-0.0777 z"
         style="fill:#e7c4ad;fill-opacity:1;stroke:none;stroke-width:0.28630999" />
      <path
         inkscape:connector-curvature="0"
         id="path3917"
         d="m 265.42243,129.43314 c -0.15902,-0.24269 -0.34895,-2.21653 -0.4278,-4.44613 l -0.0566,-1.59971 h 4.00644 4.00645 l -0.24758,0.31163 c -0.41536,0.52281 -3.50528,3.52066 -4.20533,4.08 -0.697,0.55694 -1.91747,1.39903 -2.33381,1.61031 -0.48543,0.24632 -0.60455,0.25339 -0.74179,0.0439 z"
         style="fill:#38abc7;fill-opacity:1;stroke:none;stroke-width:0.28630999" />
      <path
         inkscape:connector-curvature="0"
         id="path3919"
         d="m 295.14979,136.77499 c -0.83992,-0.60843 -1.55039,-2.47467 -2.10734,-5.53554 -0.24541,-1.34868 -0.26069,-1.52083 -0.15443,-1.74033 0.0797,-0.16474 0.20997,-0.26727 0.40229,-0.31678 0.44948,-0.11569 4.49731,-0.0413 4.72146,0.0868 0.10226,0.0584 0.31522,0.30836 0.47324,0.55537 0.31997,0.5002 0.87892,0.97715 1.62724,1.38855 0.27361,0.15041 0.49748,0.30343 0.49748,0.34003 0,0.0891 -0.77299,1.12399 -1.75267,2.34658 -1.45978,1.82174 -2.80374,3.11631 -3.2352,3.11631 -0.0767,0 -0.28915,-0.10843 -0.47207,-0.24094 z"
         style="fill:#38abc7;fill-opacity:1;stroke:none;stroke-width:0.28630999" />
      <path
         inkscape:connector-curvature="0"
         id="path3921"
         d="m 292.3417,127.10608 c -0.0717,-0.23995 -0.22253,-1.0533 -0.33495,-1.80743 -0.11243,-0.75415 -0.22543,-1.49443 -0.25112,-1.64504 l -0.0467,-0.27386 2.28575,0.0246 c 2.4117,0.0259 2.56316,0.0504 2.38363,0.3859 -0.14366,0.26844 -2.56951,2.82168 -3.14654,3.31179 -0.28517,0.24221 -0.57272,0.44038 -0.63901,0.44038 -0.0734,0 -0.17155,-0.17052 -0.25106,-0.43628 z"
         style="fill:#38abc7;fill-opacity:1;stroke:none;stroke-width:0.28630999" />
      <path
         inkscape:connector-curvature="0"
         id="path3923"
         d="m 307.59663,123.91222 c -0.0594,-0.21503 -0.0575,-0.33866 0.007,-0.41551 0.10161,-0.12245 0.55065,-0.14485 0.72231,-0.036 0.21787,0.13808 -0.23958,0.75767 -0.5594,0.75767 -0.0465,0 -0.1227,-0.13776 -0.16918,-0.30611 z"
         style="fill:#38abc7;fill-opacity:1;stroke:none;stroke-width:0.28630999" />
      <path
         inkscape:connector-curvature="0"
         id="path3925"
         d="m 307.65964,122.66658 c -0.0761,-0.0201 -0.15544,-0.0813 -0.1763,-0.13579 -0.0209,-0.0545 0.36837,-1.85673 0.86498,-4.00492 1.04304,-4.51188 2.61848,-11.55773 2.6969,-12.06131 0.0695,-0.44585 -0.0907,-0.61248 -0.82252,-0.85603 -0.32001,-0.10648 -0.53367,-0.22239 -0.51663,-0.28023 0.016,-0.0542 0.1509,-0.46324 0.2998,-0.90888 l 0.27073,-0.81023 h 6.09438 6.09439 l -0.001,6.41957 -10e-4,6.41958 -0.38457,-0.70635 c -0.71779,-1.31839 -1.71411,-2.44561 -2.5472,-2.88187 -0.9385,-0.49145 -2.27899,0.18429 -4.21853,2.1266 -1.2513,1.25307 -1.99262,2.14026 -4.0574,4.85574 -1.60307,2.10826 -2.11773,2.66858 -2.56521,2.79286 -0.31067,0.0862 -0.77028,0.1002 -1.03066,0.0313 h 10e-6 z"
         style="fill:#38abc7;fill-opacity:1;stroke:none;stroke-width:0.28630999" />
      <path
         inkscape:connector-curvature="0"
         id="path3927"
         d="m 303.68447,107.52177 v -3.92665 l 2.22296,0.0319 c 2.18541,0.0314 2.62023,0.0833 2.77372,0.33172 0.0895,0.14482 -0.0922,0.55129 -0.33054,0.73931 -0.18915,0.14924 -0.28863,0.16607 -0.70511,0.11923 -0.36399,-0.0409 -0.53239,-0.0234 -0.67532,0.0702 -0.27081,0.17744 -0.62957,0.86654 -2.00746,3.85605 -0.66812,1.44958 -1.22905,2.65119 -1.24651,2.67022 -0.0174,0.019 -0.0317,-1.73237 -0.0317,-3.89202 z"
         style="fill:#38abc7;fill-opacity:1;stroke:none;stroke-width:0.28630999" />
      <path
         sodipodi:nodetypes="ccccccccssssccccsscsccs"
         inkscape:connector-curvature="0"
         id="path3929"
         d="m 303.55596,94.010992 0.0214,-9.33005 9.51896,-0.0857 9.39045,0.0643 0.0857,9.35148 -0.10713,9.265788 h -5.993 -5.99297 l 0.0525,-0.22853 c 0.0289,-0.12569 0.076,-0.44535 0.10475,-0.71035 0.0594,-0.54769 -0.0416,-0.81883 -0.35859,-0.96327 -0.51501,-0.23466 -0.65942,-0.0838 -1.04461,1.09137 l -0.26574,0.81078 h -2.64157 l -2.74866,0.0429 z m 10.3111,7.396018 c 0.0803,-0.85659 -0.0938,-2.719668 -0.50861,-5.443148 -0.22443,-1.47358 -0.34878,-2.05669 -0.45229,-2.12065 -0.0358,-0.0222 -0.26499,0.11641 -0.50916,0.30796 -0.66845,0.52438 -5.7324,5.57441 -5.65954,5.644 0.0695,0.0663 6.81804,2.225548 6.9744,2.231448 0.0604,0.002 0.11873,-0.23054 0.1552,-0.61961 z"
         style="fill:#38abc7;fill-opacity:1;stroke:none;stroke-width:0.28630999" />
      <path
         sodipodi:nodetypes="cccsscccccccccc"
         inkscape:connector-curvature="0"
         id="path3931"
         d="m 283.87818,101.71863 c -0.0694,-1.984738 -0.0695,-4.499998 -2.8e-4,-5.856358 l 0.0539,-1.05725 1.37424,-1.33512 c 0.87396,-0.84909 1.74875,-1.48385 2.81081,-2.25011 2.04675,-1.47669 3.44666,-2.51547 4.1271,-2.87725 5.31456,-3.26465 1.14014,-0.59262 6.08997,-3.63522 0.40116,0.0599 0.65501,-0.008 2.17194,-0.006 l 2.51381,-0.0631 v 9.35188 9.287628 h -9.54351 -9.54351 l -0.0544,-1.55815 z"
         style="fill:#38abc7;fill-opacity:1;stroke:none;stroke-width:0.28630999" />
      <path
         inkscape:connector-curvature="0"
         id="path3933"
         d="m 281.16402,103.20136 c -0.68404,-0.0763 -0.69413,-0.09 -0.64067,-0.87116 0.0669,-0.97721 0.60387,-3.195128 1.00825,-4.164138 0.17229,-0.41287 1.63863,-2.6177 1.74092,-2.6177 0.0431,0 0.0513,0.3611 0.0193,0.85179 -0.0305,0.46848 -0.0588,2.20738 -0.0627,3.864208 l -0.008,3.01242 -0.80049,-0.0122 c -0.44027,-0.006 -1.00617,-0.0352 -1.25754,-0.0632 z"
         style="fill:#38abc7;fill-opacity:1;stroke:none;stroke-width:0.28630999" />
      <path
         inkscape:connector-curvature="0"
         id="path3935"
         d="m 266.94937,122.64696 c -0.80224,-0.0333 -1.50197,-0.0873 -1.55498,-0.12009 -0.13152,-0.0813 -0.0264,-0.3374 0.49735,-1.21205 0.87858,-1.46714 2.02458,-3.04099 3.31412,-4.55143 l 0.7243,-0.84839 0.1402,0.64062 c 0.23199,1.06011 0.57043,1.67956 1.01055,1.84968 0.24128,0.0933 0.7135,-0.0456 1.01334,-0.29782 0.40499,-0.34077 0.51651,-0.76478 0.59992,-2.28088 0.10778,-1.95883 0.12238,-2.03521 0.44979,-2.35023 0.27265,-0.26233 1.01317,-0.70059 1.07207,-0.63451 0.0162,0.0182 0.61031,0.91193 1.32016,1.98602 2.16787,3.28024 2.61558,3.72043 3.5968,3.53636 0.36596,-0.0686 0.91236,-0.54917 1.02728,-0.90338 0.18159,-0.55975 0.2545,-1.86234 0.25515,-4.55849 8.5e-4,-4.05245 -0.1645,-6.08565 -0.56996,-7.00224 l -0.1653,-0.37368 0.33665,-0.78374 c 0.25333,-0.5898 0.39067,-0.80862 0.55494,-0.88422 0.22594,-0.10399 1.46968,-0.24115 2.23351,-0.24634 l 0.43629,-0.003 -0.005,6.95973 c -0.003,3.82787 -0.0338,7.49263 -0.0686,8.14394 -0.058,1.08463 -0.0799,1.2018 -0.25975,1.39332 -0.25159,0.26778 -0.89396,0.46927 -4.11223,1.28983 -1.41688,0.36128 -2.8753,0.74746 -3.24095,0.85822 -0.36565,0.11074 -1.00138,0.24419 -1.41272,0.29655 -0.93536,0.11904 -5.25079,0.17676 -7.19259,0.0962 v 0 z"
         style="fill:#38abc7;fill-opacity:1;stroke:none;stroke-width:0.28630999" />
      <path
         inkscape:connector-curvature="0"
         id="path3937"
         d="m 291.64358,122.41087 c -0.0444,-0.1714 -0.12453,-0.47971 -0.17809,-0.68512 -0.29338,-1.12541 -1.07612,-1.7983 -2.46713,-2.12089 -0.79527,-0.18443 -2.4813,-0.15357 -3.90781,0.0715 l -1.18419,0.18686 v -8.12702 -8.12701 h 9.55665 9.55665 v 4.67991 4.6799 l -0.50757,1.11641 c -2.49842,5.4952 -2.95295,6.32216 -4.31526,7.85093 l -0.70054,0.78615 h -2.886 -2.88601 z"
         style="fill:#38abc7;fill-opacity:1;stroke:none;stroke-width:0.28630999" />
      <path
         inkscape:connector-curvature="0"
         id="path3939"
         d="m 277.03179,112.85422 c -0.72177,-1.09254 -0.89915,-1.45136 -0.80174,-1.62175 0.0815,-0.14246 0.66616,-0.76571 1.18409,-1.26212 l 0.34272,-0.32849 v 2.05284 c 0,1.12908 -0.0304,2.05286 -0.0674,2.05286 -0.0371,0 -0.33303,-0.40202 -0.65762,-0.89334 z"
         style="fill:#38abc7;fill-opacity:1;stroke:none;stroke-width:0.28630999" />
      <path
         inkscape:connector-curvature="0"
         id="path3941"
         d="m 283.90823,122.08393 c 0,-0.77007 0.0324,-0.95615 0.19463,-1.11838 0.40017,-0.40017 2.94405,-0.77975 4.18305,-0.62418 1.66727,0.20935 2.39647,0.86512 2.39647,2.15517 v 0.51112 h -3.38707 -3.38708 z"
         style="fill:#e7c4ad;fill-opacity:1;stroke:none;stroke-width:0.28630999" />
      <path
         inkscape:connector-curvature="0"
         id="path836"
         d="m 306.5055,112.19335 c -0.72861,-0.28543 -0.78377,-0.32746 -0.70211,-0.53496 0.28185,-0.71618 1.48093,-3.11519 1.84589,-3.69308 0.57738,-0.91419 1.03255,-1.05739 1.03255,-0.32479 0,0.39297 -0.60493,3.37053 -0.87003,4.28247 -0.12156,0.41814 -0.22069,0.58681 -0.34325,0.58403 -0.0948,-0.002 -0.52816,-0.1433 -0.96305,-0.31367 z"
         style="fill:#ffcc00;fill-opacity:1;stroke-width:0.10263855" />
      <path
         inkscape:connector-curvature="0"
         id="path840"
         d="m 304.45441,127.52867 c 0.0741,-0.0297 0.16262,-0.026 0.19672,0.008 0.0341,0.0341 -0.0265,0.0583 -0.13471,0.0539 -0.11957,-0.005 -0.14389,-0.0292 -0.062,-0.062 z"
         style="fill:#ffcc00;fill-opacity:1;stroke-width:0.10263855" />
      <path
         inkscape:connector-curvature="0"
         id="path842"
         d="m 296.01302,127.17416 c 0.22969,-0.24629 1.28199,-1.38052 2.33845,-2.52051 2.25739,-2.43588 2.7645,-2.90572 3.13446,-2.90405 0.75139,0.003 3.09679,0.84947 3.56022,1.28427 0.46164,0.43313 0.57205,0.95852 0.59128,2.81351 l 0.0166,1.59745 -0.78329,0.0298 -0.7833,0.0298 -0.26712,-0.45582 c -0.4267,-0.72812 -1.11114,-1.26545 -1.79186,-1.40677 -0.66296,-0.13763 -1.68859,-0.0709 -2.19151,0.1426 -0.4052,0.17201 -1.16326,0.91832 -1.34128,1.32051 -0.0695,0.15694 -0.19619,0.31436 -0.2816,0.34981 -0.0854,0.0355 -0.70953,0.0876 -1.38695,0.11588 l -1.23166,0.0514 z"
         style="fill:#ffcc00;fill-opacity:1;stroke-width:0.10263855" />
      <path
         inkscape:connector-curvature="0"
         id="path852"
         d="m 300.47804,129.67706 c -1.02661,-0.52348 -1.07827,-1.77556 -0.10247,-2.48247 0.55996,-0.40562 0.96154,-0.40784 1.51299,-0.009 0.49938,0.36174 0.73756,0.77672 0.73756,1.28502 0,0.55238 -0.26017,0.96334 -0.75095,1.18615 -0.53755,0.24406 -0.94587,0.24981 -1.39717,0.0197 z"
         style="fill:#38abc7;fill-opacity:1;stroke-width:0.10263855" />
    </g>
    <g
       style="display:inline"
       id="g4227"
       transform="matrix(0.19929693,0,0,0.19929693,581.92559,-56.849009)">
      <g
         style="display:inline"
         inkscape:label="Karte"
         id="layer3-5">
        <path
           sodipodi:nodetypes="ccccccccccccc"
           id="path2477"
           d="m 28.889328,33.394928 2.68056,101.191092 -4.690976,86.44802 4.020837,107.22234 96.500101,-1.3403 104.54178,2.68056 101.19109,-3.35069 -4.02083,-93.81955 6.03125,-99.85082 -2.01042,-98.510511 H 214.51801 L 122.03875,30.71437 Z"
           style="fill:#288aaa;fill-opacity:1;fill-rule:evenodd;stroke:#28433c;stroke-width:5.30723476;stroke-linecap:butt;stroke-linejoin:miter;stroke-miterlimit:4;stroke-dasharray:none;stroke-opacity:1"
           inkscape:connector-curvature="0" />
        <path
           sodipodi:nodetypes="ccs"
           id="path2481"
           d="m 32.993537,274.9473 76.674183,-81.77509 c 0,0 48.33907,-54.86904 67.90248,-63.08952"
           style="display:inline;fill:none;fill-rule:evenodd;stroke:#b7c8c4;stroke-width:2.65361738;stroke-linecap:butt;stroke-linejoin:round;stroke-miterlimit:4;stroke-dasharray:10.61447024, 2.65361757;stroke-dashoffset:0;stroke-opacity:1"
           inkscape:connector-curvature="0" />
        <path
           sodipodi:nodetypes="csssccccccc"
           id="path2485"
           d="m 29.55947,238.45766 c -0.900729,-16.60962 17.844113,-35.58879 26.166911,-43.84419 9.032976,-8.95984 34.954708,-24.52925 42.9843,-34.39834 15.628529,-19.20886 6.937909,-43.97643 21.393539,-62.575674 21.78523,-28.029827 58.47511,-45.796914 88.38253,-62.904249 35.36763,1.664258 92.95414,2.263604 121.96541,2.010419 0.37185,43.520639 4.04325,124.830164 0.67014,166.776874 -3.35648,48.58105 6.83144,93.92588 -2.33707,123.47141 -85.49099,1.02905 -119.65517,1.19497 -224.1951,0.036 -21.239968,0.51392 -48.239609,-1.70406 -71.679962,-1.7892 -0.43048,-20.86645 -1.214161,-59.55478 -3.350698,-86.78308 z"
           style="fill:#37abc8;fill-opacity:1;fill-rule:evenodd;stroke:#14465a;stroke-width:0.66340435;stroke-linecap:butt;stroke-linejoin:miter;stroke-miterlimit:4;stroke-dasharray:none;stroke-opacity:1"
           inkscape:connector-curvature="0" />
        <path
           sodipodi:nodetypes="ccccccccccc"
           id="path3245"
           d="m 173.04542,328.36333 c 0,0 -16.09424,-24.23922 -7.70919,-29.07592 25.19829,-12.31719 10.0974,-14.23164 36.20104,-21.27218 8.78211,0.38934 30.66293,-11.25773 38.17434,-1.52294 0.51411,4.47936 5.20132,30.85846 7.13123,34.9333 8.72915,18.43092 17.31144,-8.96225 35.04867,-19.02643 10.50766,-5.96209 27.90191,-36.21711 39.96973,-36.78764 3.57903,-0.1692 9.01251,9.01252 9.01251,9.01252 l 2.08868,60.32033 -102.14185,4.50626 z"
           style="fill:#e9c6af;fill-rule:evenodd;stroke:#000000;stroke-width:2.5999999;stroke-linecap:butt;stroke-linejoin:round;stroke-miterlimit:4;stroke-dasharray:none;stroke-opacity:1"
           inkscape:connector-curvature="0" />
        <path
           sodipodi:nodetypes="csc"
           id="path3277"
           d="m 154.36367,32.1976 c 0,0 -66.021295,52.167779 -77.181837,68.68475 -18.035353,26.6913 70.423707,225.50157 70.423707,225.50157"
           style="fill:none;fill-rule:evenodd;stroke:#e6e6e6;stroke-width:5;stroke-linecap:butt;stroke-linejoin:miter;stroke-miterlimit:4;stroke-dasharray:30, 5;stroke-dashoffset:11;stroke-opacity:1"
           inkscape:connector-curvature="0" />
        <path
           sodipodi:nodetypes="cc"
           id="path3289"
           d="M 122.18546,325.76174 28.723659,40.330216"
           style="fill:none;fill-rule:evenodd;stroke:#e6e6e6;stroke-width:5;stroke-linecap:butt;stroke-linejoin:miter;stroke-miterlimit:4;stroke-dasharray:30, 5;stroke-dashoffset:15.5;stroke-opacity:1"
           inkscape:connector-curvature="0" />
        <path
           sodipodi:nodetypes="ccc"
           d="m 327.96224,242.56646 c -44.96795,6.59046 -86.79625,14.49102 -137.79966,22.9854 -13.03041,-53.16472 -14.37986,-64.20892 -19.87142,-83.64856"
           style="display:inline;fill:none;fill-rule:evenodd;stroke:#800080;stroke-width:2.65361738;stroke-linecap:butt;stroke-linejoin:miter;stroke-miterlimit:4;stroke-dasharray:10.61446953, 2.65361738;stroke-dashoffset:11.67591667;stroke-opacity:1"
           id="path3259"
           inkscape:connector-curvature="0" />
        <path
           style="display:inline;fill:none;fill-opacity:1;fill-rule:evenodd;stroke:#102844;stroke-width:5.30723476;stroke-linecap:butt;stroke-linejoin:miter;stroke-miterlimit:4;stroke-dasharray:none;stroke-opacity:1"
           d="m 28.833211,33.519789 2.68056,101.191091 -4.69097,86.44803 4.02083,107.22234 96.500109,-1.3403 104.54178,2.68056 101.19109,-3.35069 -4.02083,-93.81955 6.03124,-99.85083 -2.01041,-98.51051 H 214.4619 l -92.47926,-3.350699 z"
           id="path4123"
           sodipodi:nodetypes="ccccccccccccc"
           inkscape:connector-curvature="0" />
        <circle
           transform="matrix(1.1578162,0,0,1.1578162,-69.542544,-17.897461)"
           id="path2570"
           style="opacity:1;fill:url(#linearGradient3348);fill-opacity:1;fill-rule:evenodd;stroke:none;stroke-width:5.30723476;stroke-linecap:butt;stroke-linejoin:miter;stroke-miterlimit:4;stroke-dasharray:21.22893906, 5.30723476;stroke-dashoffset:12.20664024;stroke-opacity:1"
           cx="259.8609"
           cy="129.17943"
           r="87.621696" />
      </g>
      <g
         style="display:inline"
         inkscape:label="Seez"
         id="layer4">
        <path
           sodipodi:nodetypes="cc"
           id="path3249"
           d="m 251.35198,113.14266 c 40.29256,-4.64903 73.50334,-9.20477 73.50334,-9.20477"
           style="fill:#ffffff;fill-opacity:0;fill-rule:evenodd;stroke:#800080;stroke-width:5.30723476;stroke-linecap:butt;stroke-linejoin:miter;stroke-miterlimit:4;stroke-dasharray:21.22893906, 5.30723476;stroke-dashoffset:0;stroke-opacity:1"
           inkscape:connector-curvature="0" />
        <path
           sodipodi:nodetypes="ccc"
           id="path3351"
           d="m 175.33373,212.48109 c -4.83177,-21.5164 -13.92576,-65.98721 -17.20166,-83.81433 16.51699,-3.02103 35.64546,-6.74837 65.02009,-11.38861"
           style="fill:none;fill-rule:evenodd;stroke:#800080;stroke-width:5.30700016;stroke-linecap:butt;stroke-linejoin:miter;stroke-miterlimit:4;stroke-dasharray:21.22800064, 5.30700016;stroke-dashoffset:33.4341011;stroke-opacity:1"
           inkscape:connector-curvature="0" />
        <path
           id="path2407"
           d="m 236.10327,55.600789 c -8.07941,0 -14.63423,6.554837 -14.63424,14.634241 0,6.520751 4.29291,12.033471 10.18838,13.92414 l -0.0617,2.74778 H 209.27383 V 97.8672 h 22.10572 l -1.57455,82.37162 c -0.0509,-0.005 -0.10371,0.005 -0.15437,0 -0.70775,-0.0682 -1.42529,-0.12368 -2.13031,-0.21612 -0.0524,-0.006 -0.10197,-0.0243 -0.15437,-0.0309 -0.72445,-0.0969 -1.44051,-0.18613 -2.16118,-0.30875 -0.0319,-0.005 -0.0608,-0.0257 -0.0926,-0.0309 -6.01783,-1.03368 -11.87415,-2.96185 -17.35114,-5.83518 -2.26783,-1.10956 -4.46424,-2.32636 -6.57615,-3.64311 -0.89118,-0.55562 -1.75665,-1.13495 -2.62428,-1.72894 -0.26844,-0.23237 -0.534,-0.46892 -0.80273,-0.71012 1.76263,-1.89094 3.52105,-3.78588 5.27944,-5.68079 -8.60643,-6.80435 -17.25344,-13.55734 -25.87235,-20.34593 0.28815,1.68779 0.5763,3.37557 0.86446,5.06334 2.02069,11.86526 4.0079,23.73628 6.05131,35.59764 2.58495,-2.76662 5.16395,-5.53882 7.74933,-8.30509 0.4035,0.3105 0.86701,0.61723 1.38935,0.92623 9.76781,9.54367 22.8649,15.4291 36.36948,16.82629 l -0.21611,11.42334 h 13.49189 l -0.21611,-11.36159 c 6.2305,-0.62374 12.34146,-2.28233 18.06124,-5.06333 7.14216,-3.18277 13.59699,-7.84842 19.23445,-13.30666 2.73145,2.92907 5.4476,5.87241 8.18161,8.79906 2.33547,-13.55023 4.62665,-27.10807 6.94662,-40.66096 -1.34815,1.05999 -2.69632,2.12001 -4.04448,3.18002 -7.27342,5.72513 -14.56878,11.42259 -21.82788,17.16588 1.63383,1.76214 3.2724,3.51986 4.90896,5.27945 -0.52961,0.39301 -1.04967,0.91689 -1.60542,1.5437 -8.88141,6.33603 -19.34667,10.16495 -30.07121,11.33074 l -1.57458,-82.279 h 22.10572 V 86.90695 H 240.64174 L 240.58,84.15917 h 0.0926 c 5.85357,-1.91517 10.0649,-7.433306 10.0649,-13.92414 0,-8.079404 -6.55483,-14.634241 -14.63424,-14.634241 z m 0,8.428582 c 3.5128,0 6.3909,2.847248 6.3909,6.360029 0,3.512791 -2.8781,6.360029 -6.3909,6.360029 -3.51278,0 -6.36002,-2.847238 -6.36002,-6.360029 0,-3.512781 2.84724,-6.360029 6.36002,-6.360029 z"
           style="display:inline;fill:#800080;fill-opacity:1;fill-rule:evenodd;stroke:#800080;stroke-width:3.36125827;stroke-linecap:butt;stroke-linejoin:miter;stroke-miterlimit:4;stroke-dasharray:none;stroke-opacity:1"
           inkscape:connector-curvature="0" />
      </g>
      <g
         inkscape:label="Lupe"
         id="layer5">
        <g
           transform="translate(-1.8737319,3.3374581)"
           id="g3651"
           style="display:inline">
          <g
             id="g3639"
             transform="matrix(1.1025,0,0,1.1025,-32.321362,-4.439952)">
            <path
               id="path2676"
               d="M 315.67376,42.973203 C 274.18273,1.482175 206.83826,1.460075 165.34723,42.951103 128.13442,80.163923 124.40648,138.13847 153.94513,179.64373 l -26.18506,26.18505 25.05811,25.05811 26.18505,-26.18505 c 41.50526,29.53866 99.47983,25.81072 136.69263,-11.4021 41.49103,-41.49104 41.46893,-108.835507 -0.0221,-150.326537 z m -12.52905,12.52906 c 34.57586,34.57586 34.59796,90.692557 0.0221,125.268407 -34.57585,34.57588 -90.71465,34.57588 -125.29052,0 -34.57587,-34.57585 -34.57586,-90.714647 0,-125.290507 34.57586,-34.57587 90.69256,-34.55377 125.26843,0.0221 z"
               style="fill:url(#linearGradient3647);fill-opacity:1;stroke:#1a1a1a;stroke-width:3.62811804;stroke-linecap:butt;stroke-linejoin:miter;stroke-miterlimit:4;stroke-dasharray:none;stroke-opacity:1"
               inkscape:connector-curvature="0" />
            <path
               sodipodi:nodetypes="cscsc"
               id="path2678"
               d="m 265.87811,42.886408 c -4.55289,12.203228 -26.99531,5.617999 -52.43593,22.969512 -25.4406,17.351506 -31.79747,46.76707 -43.63588,46.80075 -8.38952,-10.44682 2.20086,-44.78264 27.64146,-62.134142 25.44064,-17.351504 60.04088,-18.082948 68.43035,-7.63612 z"
               style="fill:url(#radialGradient3649);fill-opacity:1;fill-rule:nonzero;stroke:none;stroke-width:0;stroke-linecap:round;stroke-linejoin:round;stroke-miterlimit:0;stroke-dashoffset:2.4000001;stroke-opacity:1"
               inkscape:connector-curvature="0" />
          </g>
          <rect
             style="fill:url(#linearGradient3632);fill-opacity:1;stroke:url(#linearGradient3634);stroke-width:6.82550764;stroke-linecap:butt;stroke-linejoin:round;stroke-miterlimit:4;stroke-opacity:1"
             id="rect2680"
             width="59.378761"
             height="151.2679"
             x="222.99344"
             y="55.926376"
             rx="16.758005"
             ry="19.190006"
             transform="rotate(45)" />
        </g>
      </g>
    </g>
  </g>
  <style
     id="style17"
     type="text/css">
	.st0{fill:#003399;}
	.st1{clip-path:url(#SVGID_2_);}
	.st2{clip-path:url(#SVGID_4_);fill:#003399;}
	.st3{clip-path:url(#SVGID_4_);fill:#FFCC00;}
</style>
</svg>
