<?xml version="1.0" encoding="UTF-8" standalone="no"?>
<svg
   xmlns:dc="http://purl.org/dc/elements/1.1/"
   xmlns:cc="http://creativecommons.org/ns#"
   xmlns:rdf="http://www.w3.org/1999/02/22-rdf-syntax-ns#"
   xmlns:svg="http://www.w3.org/2000/svg"
   xmlns="http://www.w3.org/2000/svg"
   viewBox="0 0 2371.8799 1612.88"
   height="1612.88"
   width="2371.8799"
   xml:space="preserve"
   id="svg2"
   version="1.1"><metadata
     id="metadata8"><rdf:RDF><cc:Work
         rdf:about=""><dc:format>image/svg+xml</dc:format><dc:type
           rdf:resource="http://purl.org/dc/dcmitype/StillImage" /><dc:title></dc:title></cc:Work></rdf:RDF></metadata><defs
     id="defs6"><clipPath
       id="clipPath22"
       clipPathUnits="userSpaceOnUse"><path
         id="path20"
         d="M 0,1209.659 H 1778.911 V 0 H 0 Z" /></clipPath></defs><g
     transform="matrix(1.3333333,0,0,-1.3333333,0,1612.88)"
     id="g10"><g
       id="g3903"><path
         id="path14"
         style="fill:#2857af;fill-opacity:1;fill-rule:nonzero;stroke:none;stroke-width:1.01677167"
         d="M 1488.3522,567.891 C 1044.7847,743.24068 598.45483,912.37522 154.8873,1087.7249 V 52.2359 Z" /><g
         id="g24"
         transform="translate(465.1233,425.7594)"><path
           d="m 0,0 c 0,0 123.309,-8.504 252.314,-64.349 -8.192,-13.372 -15.653,-11.533 -25.283,-7.783 -5.793,2.248 -16.675,5.551 -24.676,6.304 -29.913,2.81 -55.012,-1.559 -55.012,-1.559 0,0 -36.433,29.565 -107.494,22.741 0,0 -35.563,28.25 -39.849,44.646"
           style="fill:#ffffff;fill-opacity:1;fill-rule:nonzero;stroke:none"
           id="path26" /></g><g
         id="g28"
         transform="translate(415.5885,374.9587)"><path
           d="M 0,0 C 0,0 41.385,20.757 79.862,5.176 63.077,-3.038 0,0 0,0"
           style="fill:#ffffff;fill-opacity:1;fill-rule:nonzero;stroke:none"
           id="path30" /></g><g
         id="g32"
         transform="translate(491.8812,372.4941)"><path
           d="m 0,0 c 0,0 43.701,17.039 111.257,-13.843 l -17.754,0.922 c 0,0 -35.523,17.296 -81.365,11.34 C 7.277,-0.498 0,0 0,0"
           style="fill:#ffffff;fill-opacity:1;fill-rule:nonzero;stroke:none"
           id="path34" /></g><g
         id="g36"
         transform="translate(635.5768,354.6184)"><path
           d="M 0,0 C 0,0 38.184,4.444 54.83,-6.866 32.229,-12.196 8.978,0.18 0,0"
           style="fill:#ffffff;fill-opacity:1;fill-rule:nonzero;stroke:none"
           id="path38" /></g><g
         id="g40"
         transform="translate(549.861,423.3254)"><path
           d="m 0,0 c 0,0 -40.46,3.333 -72.091,31.568 -38.612,135.95 16.242,235.042 34.784,350.888 z"
           style="fill:#ffffff;fill-opacity:1;fill-rule:nonzero;stroke:none"
           id="path42" /></g><g
         id="g44"
         transform="translate(495.8668,856.1638)"><path
           d="m 0,0 c 0.084,0.1 0.245,0.302 0.245,0.302 0,0 -0.038,0.009 -0.11,-0.011 -78.285,-18.112 -243.84,-311.089 -34.673,-366.351 -10.702,45.686 14.73,3.562 50.14,30.842 C 35.947,-339.026 -103.239,-126.623 0,0"
           style="fill:#ffffff;fill-opacity:1;fill-rule:nonzero;stroke:none"
           id="path46" /></g><g
         id="g48"
         transform="translate(556.1823,446.3973)"><path
           d="M 0,0 C 0,0 87.722,-17.933 108.769,-12.138 89.927,5.616 13.129,76.941 -17.705,176.686 Z"
           style="fill:#ffffff;fill-opacity:1;fill-rule:nonzero;stroke:none"
           id="path50" /></g><g
         id="g52"
         transform="translate(496.1122,856.4662)"><path
           d="M 0,0 C 0,0 -0.051,0.003 -0.11,-0.011"
           style="fill:#ffffff;fill-opacity:1;fill-rule:nonzero;stroke:none"
           id="path54" /></g><g
         id="g56"
         transform="translate(767.9792,564.0981)"><path
           d="m 0,0 c -10.503,10.191 -17.887,19.246 -22.165,27.159 -4.274,7.911 -6.409,16.374 -6.409,25.402 0,13.598 4.306,26.372 12.911,38.327 8.61,11.954 20.143,21.448 34.617,28.481 14.468,7.033 29.999,10.551 46.605,10.551 18.803,0 33.268,-3.754 43.403,-11.248 10.135,-7.507 15.201,-18.114 15.201,-31.826 0,-6.568 -1.831,-13.365 -5.496,-20.395 C 115.009,59.418 109.94,52.85 103.47,46.76 99.075,42.538 94.979,39.35 91.201,37.18 c -3.788,-2.173 -6.964,-3.253 -9.528,-3.253 -3.174,0 -4.759,2.347 -4.759,7.033 0,-0.121 0.245,1.696 0.732,5.449 0.737,5.508 1.102,10.43 1.102,14.766 0,6.091 -0.948,12.22 -2.843,18.376 -1.895,6.149 -4.333,11.31 -7.323,15.47 -2.996,4.159 -5.832,6.244 -8.515,6.244 -1.347,0 -2.874,-0.998 -4.579,-2.992 -3.299,-3.291 -5.86,-7.371 -7.694,-12.24 -1.83,-4.866 -2.747,-9.411 -2.747,-13.642 0,-5.281 0.782,-10.179 2.352,-14.695 1.567,-4.522 4.305,-9.117 8.218,-13.798 3.916,-4.684 9.114,-9.832 15.596,-15.449 10.273,-8.89 18.182,-16.677 23.738,-23.354 5.556,-6.685 9.616,-13.338 12.18,-19.956 2.564,-6.623 3.849,-13.801 3.849,-21.538 0,-13.599 -3.727,-26.717 -11.175,-39.381 -7.445,-12.659 -17.307,-22.886 -29.576,-30.681 -12.272,-7.796 -24.937,-11.693 -38.003,-11.693 -12.453,0 -24.6,2.579 -36.442,7.736 -11.844,5.158 -22.956,12.541 -33.33,22.15 -10.745,10.204 -16.118,19.229 -16.118,27.083 0,4.804 2.38,9.491 7.142,14.059 4.885,4.688 10.898,8.679 18.041,11.958 7.141,3.28 13.155,4.923 18.04,4.923 2.809,0 5.185,-0.677 7.142,-2.02 1.95,-1.348 3.688,-3.639 5.216,-6.859 1.527,-3.226 3.023,-7.589 4.489,-13.1 2.315,-7.855 4.455,-13.684 6.409,-17.486 1.95,-3.816 4.701,-7.595 8.243,-11.34 3.661,-3.521 7.51,-5.275 11.539,-5.275 4.879,0 8.727,1.842 11.536,5.534 2.809,3.698 4.211,8.772 4.211,15.226 0,10.079 -3.714,20.164 -11.153,30.251 -2.193,3.403 -4.597,6.423 -7.222,9.06 -2.619,2.644 -8.332,7.708 -17.133,15.19 C 10.147,-8.956 5.863,-5.276 0,0"
           style="fill:#ffffff;fill-opacity:1;fill-rule:nonzero;stroke:none"
           id="path58" /></g><g
         id="g60"
         transform="translate(950.2668,625.2705)"><path
           d="m 0,0 4.216,10.203 c -13.673,0.351 -23.231,1.669 -28.659,3.954 -5.434,2.287 -8.154,6.241 -8.154,11.869 0,4.572 1.895,9.079 5.679,13.539 4.269,5.623 8.853,10.748 13.732,15.379 4.885,4.634 9.405,7.942 13.553,9.935 3.543,1.408 8.428,2.111 14.652,2.111 15.14,0 32.291,-0.821 51.463,-2.461 4.391,-0.236 8.058,-0.415 10.99,-0.527 2.931,-0.121 6.108,-0.291 9.518,-0.53 8.059,0 13.186,-0.147 15.388,-0.439 2.19,-0.294 4.82,-1.024 7.875,-2.193 2.072,-0.706 3.845,-1.76 5.305,-3.167 3.054,-3.038 4.581,-7.848 4.581,-14.404 0,-12.188 -4.379,-19.977 -13.137,-23.372 C 101.893,17.79 97.269,16.415 93.136,15.773 89.001,15.128 81.52,14.337 70.695,13.4 L 50.806,-49.574 c 9.383,0 17.013,0.235 22.863,0.703 3.661,0.233 9.273,0.351 16.835,0.351 8.899,0 15.18,-0.913 18.84,-2.735 3.65,-1.825 5.49,-5.025 5.49,-9.612 0,-3.533 -1.772,-8.649 -5.311,-15.355 -3.539,-6.706 -7.384,-12.058 -11.53,-16.055 -1.957,-1.885 -4.698,-3.15 -8.237,-3.797 -3.539,-0.648 -9.579,-0.966 -18.123,-0.966 H 69.07 64.501 c -8.175,0 -17.51,-0.354 -28.009,-1.061 -5.453,-17.792 -10.513,-31.405 -15.155,-40.807 -4.643,-9.409 -10.329,-17.385 -17.05,-23.927 -4.65,-4.563 -9.568,-8.072 -14.762,-10.521 -5.198,-2.449 -10.056,-3.686 -14.578,-3.686 -7.455,0 -13.907,2.049 -19.347,6.147 -5.44,4.092 -8.157,8.825 -8.157,14.212 0,6.542 5.799,27.054 17.396,61.526 C -23.561,-60.678 -11.837,-28.965 0,0"
           style="fill:#ffffff;fill-opacity:1;fill-rule:nonzero;stroke:none"
           id="path62" /></g><path
         d="m 703.077,543.122 h -95.669 v 53.719 h 95.669 z"
         style="fill:#ffffff;fill-opacity:1;fill-rule:nonzero;stroke:none"
         id="path64" /><path
         d="M 339.089,543.122 H 154.837 v 53.719 h 184.252 z"
         style="fill:#ffffff;fill-opacity:1;fill-rule:nonzero;stroke:none"
         id="path66" /><path
         d="M 1385.1789,543.122 H 1091.138 v 53.719 h 294.0409 z"
         style="fill:#ffffff;fill-opacity:1;fill-rule:nonzero;stroke:none;stroke-width:0.98379582"
         id="path68" /></g></g></svg>