<?xml version="1.0" standalone="no"?>
<!DOCTYPE svg PUBLIC "-//W3C//DTD SVG 20010904//EN"
 "http://www.w3.org/TR/2001/REC-SVG-20010904/DTD/svg10.dtd">
<svg version="1.0" xmlns="http://www.w3.org/2000/svg"
 width="1086.000000pt" height="253.000000pt" viewBox="0 0 1086.000000 253.000000"
 preserveAspectRatio="xMidYMid meet">
<metadata>
Created by potrace 1.15, written by Peter Selinger 2001-2017
</metadata>
<g transform="translate(0.000000,253.000000) scale(0.100000,-0.100000)"
fill="#000000" stroke="none">
<path d="M1095 1310 c-398 -579 -645 -946 -641 -955 5 -13 92 -15 663 -13
l658 3 0 950 c0 868 -1 950 -16 953 -12 2 -201 -265 -664 -938z"/>
<path d="M4683 2225 c-204 -55 -336 -243 -321 -455 8 -108 56 -177 153 -222
66 -30 222 -33 302 -5 159 56 269 208 281 390 7 109 -10 160 -72 223 -41 40
-64 54 -112 67 -72 20 -160 21 -231 2z m193 -157 c69 -76 49 -247 -41 -346
-70 -78 -187 -95 -246 -36 -72 73 -46 277 48 366 44 42 91 59 152 55 47 -3 59
-9 87 -39z"/>
<path d="M2150 1290 l0 -940 905 0 905 0 0 940 0 940 -905 0 -905 0 0 -940z
m1458 761 c69 -31 144 -113 168 -183 21 -62 24 -193 6 -255 -42 -142 -166
-223 -344 -223 -148 0 -248 57 -308 174 -33 66 -35 74 -35 171 0 97 2 105 35
170 40 78 81 115 166 151 52 22 70 24 159 21 77 -2 112 -8 153 -26z m-854 4
c115 -24 194 -85 238 -180 31 -69 32 -209 2 -276 -69 -151 -186 -199 -486
-199 l-178 0 0 335 0 335 178 0 c116 0 201 -5 246 -15z m-184 -940 l0 -65
-115 0 -115 0 0 65 0 65 115 0 115 0 0 -65z m760 -10 l0 -75 -90 0 -90 0 0
-260 0 -260 -115 0 -115 0 0 260 0 260 -85 0 -85 0 0 75 0 75 290 0 290 0 0
-75z m403 -122 c-6 -109 -12 -206 -12 -215 -1 -16 -12 -18 -89 -18 l-89 0 -11
193 c-7 105 -12 202 -12 215 0 21 3 22 113 22 l112 0 -12 -197z m-1163 -243
l0 -230 -115 0 -115 0 0 230 0 230 115 0 115 0 0 -230z m1170 -145 l0 -85
-105 0 -105 0 0 85 0 85 105 0 105 0 0 -85z"/>
<path d="M3376 1909 c-37 -29 -55 -69 -62 -138 -17 -157 71 -263 180 -217 53
22 76 76 76 176 0 93 -14 135 -59 173 -41 34 -96 36 -135 6z"/>
<path d="M2560 1732 l0 -184 58 7 c71 8 130 40 155 82 25 44 25 152 0 196 -23
40 -91 74 -160 80 l-53 4 0 -185z"/>
<path d="M7630 2227 c0 -7 -149 -657 -156 -679 -5 -17 8 -18 181 -18 220 0
303 14 367 63 65 51 82 79 86 152 5 78 -10 108 -70 135 l-40 17 46 23 c67 32
91 71 91 147 0 72 -21 102 -95 137 -39 18 -68 21 -227 24 -101 2 -183 2 -183
-1z m298 -143 c15 -10 22 -25 22 -49 0 -59 -44 -85 -142 -85 l-61 0 7 38 c3
20 11 54 16 75 l11 37 62 0 c40 0 70 -6 85 -16z m-41 -265 c35 -13 43 -25 43
-66 0 -41 -26 -68 -77 -82 -43 -12 -173 -15 -173 -3 0 9 29 133 35 150 6 15
132 17 172 1z"/>
<path d="M9646 2163 c-3 -21 -11 -55 -16 -75 -10 -34 -14 -38 -44 -38 -31 0
-34 -3 -45 -44 -16 -63 -15 -66 19 -66 17 0 30 -5 30 -12 0 -7 -14 -75 -31
-151 -36 -155 -34 -196 11 -229 32 -23 109 -33 193 -24 l66 7 11 56 c7 30 10
57 7 59 -2 3 -16 0 -31 -6 -37 -14 -79 -13 -94 2 -18 18 -15 62 14 185 l26
112 81 3 c89 3 80 -4 101 81 l6 27 -80 0 c-44 0 -80 3 -80 8 0 4 7 34 15 67 8
33 14 63 15 68 0 4 -38 7 -84 7 l-83 0 -7 -37z"/>
<path d="M5481 2030 l-63 -30 4 25 5 25 -83 0 c-78 0 -84 -1 -89 -22 -59 -250
-155 -672 -155 -679 0 -6 34 -9 82 -7 l82 3 23 99 c13 55 25 101 27 104 2 2
25 -4 50 -12 173 -59 346 62 386 271 39 200 -90 307 -269 223z m79 -110 c15
-15 20 -33 20 -72 0 -135 -69 -219 -177 -217 -74 1 -73 -1 -40 146 l30 132 36
15 c52 22 107 20 131 -4z"/>
<path d="M6065 2047 c-145 -49 -223 -142 -233 -280 -8 -114 26 -174 123 -219
65 -29 229 -32 316 -6 l56 18 15 67 c8 38 14 70 12 72 -1 1 -29 -9 -61 -24
-96 -46 -234 -44 -276 3 -9 10 -20 33 -23 50 l-6 32 196 0 196 0 12 28 c6 15
11 54 11 88 1 80 -22 121 -87 153 -60 30 -187 39 -251 18z m159 -116 c9 -8 16
-26 16 -42 l0 -29 -115 0 c-63 0 -115 4 -115 8 0 10 48 55 75 71 25 14 119 9
139 -8z"/>
<path d="M6816 2040 c-27 -11 -54 -24 -60 -30 -18 -18 -29 -11 -24 15 l5 25
-83 0 c-70 0 -83 -3 -88 -17 -2 -10 -28 -119 -56 -243 -28 -124 -53 -233 -56
-242 -5 -16 3 -18 79 -18 l85 0 16 73 c9 39 28 122 42 184 l26 111 39 16 c82
33 139 14 139 -46 0 -25 -48 -255 -66 -320 -5 -16 3 -18 78 -18 l84 0 44 189
c46 202 48 254 13 293 -44 50 -132 61 -217 28z"/>
<path d="M8457 2050 c-92 -23 -169 -86 -214 -173 -38 -75 -44 -195 -11 -252
45 -76 126 -110 244 -103 165 11 284 114 313 273 20 110 -15 197 -96 236 -52
25 -171 35 -236 19z m138 -125 c55 -54 18 -229 -57 -275 -42 -25 -99 -26 -129
-1 -21 17 -24 27 -24 93 1 79 21 133 67 174 46 42 107 46 143 9z"/>
<path d="M9040 2047 l-65 -12 -14 -58 c-7 -32 -12 -60 -10 -62 3 -2 36 5 74
16 49 14 89 19 133 16 69 -5 92 -18 92 -52 0 -21 -7 -23 -97 -33 -176 -20
-251 -54 -290 -132 -41 -81 -23 -154 48 -190 68 -35 130 -26 263 38 5 3 6 -7
2 -22 l-6 -26 83 0 83 0 42 188 c24 103 42 199 42 214 0 83 -65 120 -214 124
-56 2 -130 -2 -166 -9z m185 -289 c-2 -7 -9 -32 -15 -54 -9 -36 -16 -44 -50
-58 -84 -33 -159 -9 -145 47 10 37 38 54 105 66 82 13 110 13 105 -1z"/>
<path d="M9984 1883 c-3 -16 -10 -44 -15 -63 -5 -19 -9 -38 -9 -43 0 -4 80 -6
177 -5 l178 3 11 50 c22 93 36 85 -161 85 l-175 0 -6 -27z"/>
<path d="M6368 1038 l-13 -63 84 -3 c46 -2 85 -1 87 1 2 1 10 31 18 65 l14 62
-88 0 -88 0 -14 -62z"/>
<path d="M4490 1067 c0 -3 -135 -588 -155 -674 -5 -23 -4 -23 83 -23 l88 0 18
77 c10 43 22 94 27 114 l9 36 102 6 c162 8 269 59 324 154 24 39 28 59 29 119
0 58 -4 78 -21 101 -30 41 -78 70 -135 82 -44 10 -369 16 -369 8z m295 -141
c43 -18 54 -54 34 -110 -19 -55 -61 -78 -156 -84 -70 -4 -75 -3 -70 14 3 11
13 53 22 94 9 41 18 81 21 88 5 17 106 16 149 -2z"/>
<path d="M7906 1003 c-3 -21 -11 -55 -16 -75 -10 -34 -14 -38 -44 -38 -31 0
-34 -3 -45 -44 -16 -63 -15 -66 19 -66 17 0 30 -5 30 -12 0 -7 -14 -75 -31
-151 -36 -155 -34 -196 11 -229 32 -23 109 -33 193 -24 l66 7 11 56 c7 30 10
57 7 59 -2 3 -16 0 -31 -6 -37 -14 -79 -13 -94 2 -18 18 -15 62 14 185 l26
112 81 3 c89 3 80 -4 101 81 l6 27 -80 0 c-44 0 -80 3 -80 8 0 4 7 34 15 67 8
33 14 63 15 68 0 4 -38 7 -84 7 l-83 0 -7 -37z"/>
<path d="M5767 890 c-92 -23 -169 -86 -214 -173 -38 -75 -44 -195 -11 -252 45
-76 126 -110 244 -103 165 11 284 114 313 273 20 110 -15 197 -96 236 -52 25
-171 35 -236 19z m138 -125 c55 -54 18 -229 -57 -275 -42 -25 -99 -26 -129 -1
-21 17 -24 27 -24 93 1 79 21 133 67 174 46 42 107 46 143 9z"/>
<path d="M6805 887 c-145 -49 -223 -142 -233 -280 -8 -114 26 -174 123 -219
65 -29 229 -32 316 -6 l56 18 15 67 c8 38 14 70 12 72 -1 1 -29 -9 -61 -24
-96 -46 -234 -44 -276 3 -9 10 -20 33 -23 50 l-6 32 196 0 196 0 12 28 c6 15
11 54 11 88 1 80 -22 121 -87 153 -60 30 -187 39 -251 18z m159 -116 c9 -8 16
-26 16 -42 l0 -29 -115 0 c-63 0 -115 4 -115 8 0 10 48 55 75 71 25 14 119 9
139 -8z"/>
<path d="M7448 881 c-74 -24 -119 -53 -167 -107 -48 -55 -71 -118 -71 -195 0
-94 32 -148 115 -192 57 -30 221 -32 280 -2 36 18 41 25 56 88 9 37 14 67 10
67 -3 0 -33 -14 -65 -30 -105 -53 -207 -32 -222 45 -16 88 20 170 92 205 68
34 154 21 198 -29 11 -11 24 -21 31 -21 13 0 49 140 38 151 -15 15 -128 39
-183 38 -30 0 -80 -8 -112 -18z"/>
<path d="M8401 884 c-108 -29 -161 -84 -161 -166 0 -78 38 -109 185 -148 84
-23 105 -34 105 -57 0 -21 -62 -43 -120 -43 -56 0 -152 30 -182 57 -15 14 -21
14 -27 4 -16 -25 -33 -123 -24 -132 21 -21 159 -41 250 -36 161 9 263 78 263
176 0 76 -40 108 -180 145 -102 28 -114 35 -108 62 10 52 152 58 246 10 38
-19 54 -23 57 -14 38 116 35 124 -44 142 -86 20 -188 20 -260 0z"/>
<path d="M5116 778 c-14 -62 -41 -178 -60 -258 l-33 -145 80 -3 c44 -2 81 -1
83 1 2 2 20 75 40 163 20 87 43 166 50 174 11 11 39 15 114 15 l99 0 17 75 c9
41 19 79 22 84 12 20 -108 -2 -164 -30 -32 -16 -62 -30 -66 -32 -4 -2 -3 12 3
30 5 18 9 34 9 35 0 2 -38 3 -84 3 l-84 0 -26 -112z"/>
<path d="M6237 861 c-3 -16 -9 -40 -13 -55 -6 -26 -5 -26 46 -26 44 0 51 -2
46 -17 -3 -10 -25 -104 -50 -210 -25 -106 -50 -201 -56 -213 -21 -38 -56 -53
-114 -47 l-54 5 -15 -58 -14 -59 54 -7 c149 -18 246 24 302 133 8 17 141 562
141 580 0 2 -60 3 -134 3 l-133 0 -6 -29z"/>
</g>
</svg>
